<?xml version="1.0" encoding="UTF-8"?>
<svg id="_Ńëîé_1" data-name="Ńëîé 1" xmlns="http://www.w3.org/2000/svg" viewBox="0 0 114.13 75.44">
  <defs>
    <style>
      .cls-1 {
        stroke-width: 0px;
        fill: #F78861;
      }
    </style>
  </defs>
  <path class="cls-1" d="m100.61,74.45c1.84-1.39,2.43-3.02,2.98-4.71,1.57-.17,3.06-.51,4.62-.72,2.28-.01,3.9-.89,5.85-1.42.63-1.2-2.65.02-3.75-.51-1.13-.63,1.22-1.37-.49-1.67-.61-.24-1.27-.42-1.9-.61-.32-.54,1.1-1.61-.66-1.04-.56-.08-2.15.35-1.88-.24.92-2.74,0-5.49.23-8.28.55-3.27-.01-6.6-.68-9.86.14-1.35.42-2.7-.17-4.03,1.19-3.16-.58-6.47.6-9.64.22-1.1-1.14-2.1-1.17-3.21.01-1.31.5-2.6.46-3.91h.46c0-2.04,0-4.08-.02-6.12-.12-2.62.47-5.34-1.17-7.84-.65-1.57,1.15-2.74,2.12-4.07.54-.67,1.58-1.05,2.8-1.23-.04-.37-.29-.71-.44-1.06-.72-.2-1.5-.28-2.27-.36-.71-.12-1.24.3-1.89.39-2.48-.62-5.53-.49-7.5-1.69.65-.86,2.69-1.28,4.27-1.39.14-.47-1.33-.2-1.86-.36-.13.04-.4.11-.53.14-2.73.42-5.58.64-8.28,1.17.18.09.53.25.7.34,1.52-.29.24.42-.09.77-1.34,1.36-4.71.53-6.75,1.16-3.45.34-6.9-.04-10.35.09-5.36-.16-10.43.4-15.87.03-.1-.9,2.16-.79,3.28-.97,4.74.51,9.5-.06,14.28.1,1.18-.47,2.53-.04,3.79-.31,2.13-.07,4.24-.26,6.37-.39-.28-.09-.84-.28-1.12-.37-1.75-.13-3.55-.07-5.26.19-7.76-.27-15.52.16-23.28-.16-1.4-1.63,4.14-.19,5-.64-1.38-.62-3.2-.6-4.85-.75-8.92-.92-18.25-.63-27.24-1.27-2.95.29-6.59-.07-8.65,1.41-1.55-.63-3.1.24-3.15,1.16-1.14-.19-2.25-.35-1.81.6-.33.65,1.2-.34,1.14.25.92.75-.94,3.04,2.75,1.88,1.32-.12,2.55.29,3.84.37.69.17,1.74.21,1.55.8-3.02-.23-14.46.56-16.92-.77.34-.34,8.51-.7,8.28-1.11-.42.16-8.55.39-8.87.61-1.03.12-4.56-.03-5.12.63-.76,1.82-.64,3.71-.47,5.57-.22,2.68-.24,5.4-1.36,8.03.75,4.17,1.64,8.14.87,12.21-.68,2.1,1.05,4.2.43,6.31-.44-.06-.88-.12-1.32-.17-.76,6.63,1.92,13.15,1.26,19.79,0,1.35-.01,2.69-.08,4.03-.66,2.96-.33,6.15-.76,9.06.67,1.47.86,3.07.46,4.58,2.04.99.98-1.92,3.22-2.23.68.38,1.36-.05,2.08-.15,5.09-.17,11.73.66,16.76.46,1.29-.04,2.24.72,3.55.56,2.12-.12,4.79,1.92,6.16.58,1.16.02,2.43-.12,3.48.09,1.26.07,2.79-.29,3.88.2,4.27-.53,4.94.67,8.99-.22.59.36,2.44,1.26,1.71.2,4.76-.54,9.69.1,14.47-.54.61.02,1.27-.07,1.83.13.87.12,1.69,1.22,2.48.55,2.17-1.71,6.57-.26,9.26-1.14-3.98-.06-8.12.28-11.88-.66-9.77.26-15.7-.68-25.42-.71-1.82.33-4.16-.28-5.67.63-.26.29-.62.48-1.04.61-1.45,0-3.04.2-4.15-.36,1.76-.27,4.21,0,5.18-1.08,1.51-.91,3.85-.3,5.67-.63,9.71.04,15.65.97,25.42.71,3.75.94,7.89.6,11.88.66.12-.08.35-.25.47-.33,2.6,1.23,6.55-.74,9.72.17,1.02.46,1.29,1.29,1.93,1.92.61.05,6.55.05,7.18.04.82-.02,1.62-.15,2.43-.24Zm-20.36-4.7c.49-1.3,8.96-1.84,6.36.61-2.11-.38-4.45.1-6.36-.61Zm18.45-44.51c-1,4.75-.41,9.58-.31,14.38-.41.94-.34,1.93-.39,2.89.89,1.09.44,2.35.72,3.51-.11.68-.25,1.36-.43,2.03-.06.18-.18.54-.25.71.07.49.14.98.2,1.48v.24c-.03,1.01-.1,2.01-.13,3.01-.97,1.16.74,2.98-1.16,3.84-1.15,3.16-.76,6.15-.99,9.28-8.52.39-26.49-.45-35.02-.39-4.52.02-9.03-.35-13.55-.07-4.38.14-4.74.02-8.92-.61-3.52-.03-7,.43-10.48.12.32,1.24-2,.89-3.59.92-2.25.09-4.41-.16-6.6-.32-1.56-.18-9.22-.02-10.55-.56-.21-.43-.06-1.14-1.19-1.06.02-5.6-1.43-10.97-1.97-16.6.25-.44.22-.83.04-1.13.02-1.13.03-2.25.49-3.35,0-.13.02-.38.03-.51.45-1.24-1.04-2.48-.67-3.73.02-.72.26-4.84.72-2.42,1.34-.4.64-1.23.52-1.89,1.2-.19-.27-.95-.1-1.45-2.45-2.06.77-4.53.86-6.8.46-.92-.31-2.16,1.18-2.75.05.16.15.47.2.63,1.18-1.42-3.47-3.03-3.28-4.55.2.3.4.61.6.92,1.65-1.2,1.78-2.77,1.77-4.17.05-.22.1-.43.13-.64.43-2,.67-4.05,1.71-5.98,1.81-1.7,18.68-1.22,21.63-1.3,2.67.03,5.06-.92,7.76-.87,3.57.36,5.65-2.44,9.19-1.79,2.67-.39,5.41.07,8.12-.05,2.92.06,5.84,0,8.77.02,2.09-.2,4.47.27,6.48-.27,3.01,0,6.02-.08,8.99-.4.97.57,2.61.18,3.93.28.19-.02.42-.03.68-.05.62.11,1.46.08,2.37-.2,1.1-.09,2.16-.32,3.28-.39.1.57,9.3,1.08,8.88,1.59l-.4.1c-1.64-.02-3.19-.02-4.8-.03-2.68.86-5.92-.01-8.35.84,2.38.32,4.81.1,7.23.19,2.15-.18,4.47.02,6.52-.56-1.04,2.63,1.09,5.82,1.29,8.66.99,1.28-.62,2.62.1,3.96-.13,1.79-1.23,3.48-1.27,5.28Z"/>
</svg>