<?xml version="1.0" encoding="UTF-8" standalone="no"?>
<svg xmlns:dc="http://purl.org/dc/elements/1.1/" xmlns:cc="http://creativecommons.org/ns#" xmlns:rdf="http://www.w3.org/1999/02/22-rdf-syntax-ns#" xmlns:svg="http://www.w3.org/2000/svg" xmlns="http://www.w3.org/2000/svg" xmlns:sodipodi="http://sodipodi.sourceforge.net/DTD/sodipodi-0.dtd" xmlns:inkscape="http://www.inkscape.org/namespaces/inkscape" version="1.1" id="svg4401" viewBox="0 0 850.3937 517.74087" height="146.11798mm" width="240mm" sodipodi:docname="kings-cafe.svg" inkscape:version="0.92.3 (2405546, 2018-03-11)">
  <defs id="defs4403">
    <clipPath id="clipPath96">
      <path id="path98" d="M 368.032,1328.74 H 822.52 v 331.161 H 368.032 Z" inkscape:connector-curvature="0"></path>
    </clipPath>
  </defs>
  <metadata id="metadata4406"></metadata>
  <g transform="translate(35.554984,-229.06365)" id="layer1">
    <g id="text84" style="font-style:normal;font-variant:normal;font-weight:normal;font-stretch:normal;font-size:132.49777222px;line-height:100%;font-family:CabinSketch;-inkscape-font-specification:CabinSketch;letter-spacing:7.94986582px;writing-mode:lr-tb;fill:#d45500;fill-opacity:1;fill-rule:nonzero;stroke:none">
      <path id="path5260" style="font-style:normal;font-variant:normal;font-weight:normal;font-stretch:normal;font-size:132.49777222px;line-height:100%;font-family:CabinSketch;-inkscape-font-specification:CabinSketch;letter-spacing:7.94986582px;fill:#d45500" d="m 274.12362,660.88123 q 0,-20.80215 12.98478,-35.7744 12.98478,-15.10475 33.25694,-15.10475 3.44495,0 4.76992,0.1325 1.32498,0 4.90242,0.265 3.57744,0.26499 5.29991,1.05998 1.72247,0.66249 3.97493,1.98747 2.38496,1.32497 3.31245,3.57744 1.05998,2.25246 1.05998,5.29991 0,0.92748 -0.52999,2.11996 -0.52999,1.19248 -1.45748,1.19248 -2.25246,0 -8.08236,-1.98747 -5.8299,-2.11996 -9.14235,-2.11996 -7.55237,0 -18.41719,4.10743 -17.22471,6.35989 -17.22471,36.03939 0,0.265 0,1.72248 0.1325,1.32497 0.1325,1.58997 0.79499,0.26499 1.19248,2.11996 0.52999,1.85497 0.66249,4.10743 0.265,2.11997 0.52999,2.64996 6.35989,14.70725 34.05193,14.70725 3.57744,0 9.14234,-2.38496 5.69741,-2.51746 6.75739,-2.51746 2.38496,0 2.38496,3.17995 0,3.84244 -0.79499,7.02238 -0.66248,3.04745 -1.72247,3.04745 -0.52999,0 -1.45747,-0.1325 h -0.92749 q -14.04476,2.51746 -22.12712,2.51746 -0.53,0 -1.58998,-0.1325 -1.05998,0 -1.58997,0 -0.39749,0.66249 -2.11997,1.19248 -1.58997,0.53 -2.78245,0.53 -14.04476,-1.05999 -24.24709,-13.38228 -10.20233,-12.32229 -10.20233,-26.63205 z m 31.13698,31.00448 q -0.1325,1.58997 5.16741,2.38496 5.43241,0.79498 8.74485,0.79498 5.29991,0 11.26231,-0.79498 6.0949,-0.92749 8.34736,-2.38496 v -2.51746 q -10.99731,3.44494 -16.29722,3.44494 -1.58998,0 -7.55238,-0.92748 -1.85496,-0.3975 -12.45479,-3.44495 -10.46732,-3.17994 -11.12981,-3.17994 l 1.58997,-1.45748 q -0.39749,-0.92748 -0.92748,-0.92748 -0.265,0 -0.79499,0.1325 -0.52999,0.13249 -0.79498,0.13249 0,-1.58997 -0.1325,-2.11996 0,-0.66249 -0.79499,-1.45748 -0.66249,-0.79498 -2.25246,-0.79498 1.19248,-0.66249 1.72247,-2.38496 -2.25246,0 -2.25246,-2.91495 h -2.64996 q 0.52999,-0.3975 1.32498,-0.66249 0.92749,-0.3975 1.32498,-0.66249 0.52999,-0.39749 0.52999,-0.79499 0,-1.58997 -0.79499,-3.17994 -1.32497,0.26499 -3.17994,1.85496 -1.72247,1.45748 -1.72247,2.64996 0,0.39749 0.79498,2.91495 0.92749,2.51746 1.05998,2.51746 0.92749,0 2.38496,-1.05998 -0.92748,0.66248 -0.92748,1.72247 0,1.98746 0.52999,3.70993 0.66249,1.58998 1.85497,2.91496 1.32498,1.32497 2.38496,2.25246 1.19248,0.79498 3.31244,1.72247 2.11997,0.92748 3.17995,1.32498 1.19248,0.39749 3.57744,1.19248 2.38496,0.66249 3.04745,0.92748 h 0.1325 q 0.26499,0 2.38496,-0.92748 z m -26.10206,-24.51209 q 0,0.79499 0.26499,2.11996 0.39749,1.19248 0.52999,1.19248 h 1.58998 l 4.23992,-4.10743 v -0.92748 q -6.62488,0 -6.62488,1.72247 z m 5.29991,-6.62489 q -1.19248,0 -2.78246,1.45748 -1.58997,1.32497 -1.72247,2.78245 1.98747,0 2.91495,-0.1325 0.92749,-0.1325 1.85497,-0.79499 1.05998,-0.79498 1.05998,-2.38496 0,-0.26499 -0.66248,-0.52999 -0.53,-0.39749 -0.66249,-0.39749 z m -6.49239,-2.25246 v 0.79498 q 0,3.31245 1.72247,3.31245 1.58997,0 5.16741,-4.10743 z m 8.08236,-8.61236 q -3.70994,0 -5.43241,1.05998 -1.58997,0.92749 -1.58997,4.23993 v 0.66249 q 0.1325,0.66249 0.1325,0.79499 6.88988,-4.23993 6.88988,-6.75739 z m -0.265,3.44494 q -3.57744,1.45748 -5.16741,3.31245 0.265,0 1.05998,0.1325 0.79499,0 1.19248,0 3.04745,0 3.04745,-2.11997 0,-1.05998 -0.1325,-1.32498 z m 0,-8.87735 q -1.85496,0 -5.16741,4.10744 0.1325,0 0.52999,0 1.72247,0 2.64996,-0.1325 0.92748,-0.1325 1.72247,-0.79499 0.92748,-0.79499 0.92748,-2.38496 0,-0.1325 -0.26499,-0.39749 -0.265,-0.3975 -0.3975,-0.3975 z m 0,-2.38496 h -4.23992 q -0.92749,0 -0.92749,2.91496 v 1.05998 l 5.16741,-3.17995 z m 3.17995,-5.6974 q -1.58997,0.39749 -4.10743,3.17995 0.265,0.26499 1.19248,0.26499 1.32498,0 2.11996,-0.79498 0.92749,-0.92749 0.92749,-2.25247 0,-0.13249 0,-0.13249 z m -0.39749,-2.78245 q -1.45748,0 -3.04745,1.05998 -1.58997,0.92748 -1.58997,2.11996 0,0.1325 0.13249,0.3975 0.1325,-0.1325 0.92749,-0.3975 0.79498,-0.39749 1.19248,-0.66249 0.52999,-0.26499 1.05998,-0.66248 0.66249,-0.3975 0.92748,-0.79499 0.3975,-0.52999 0.3975,-1.05998 z m -2.11997,-2.25247 v 1.85497 q 1.72247,-1.19248 3.70994,-1.85497 2.11997,-0.79498 2.78245,-1.19248 0.66249,-0.39749 1.19248,-1.98746 0.53,-1.58998 0.53,-4.90242 z m 14.17727,-11.6598 q -1.58998,0 -2.64996,1.05998 -1.05998,1.05999 -1.05998,2.78246 1.32498,0 2.51746,-1.19248 1.19248,-1.32498 1.19248,-2.64996 z m 2.11996,0.265 -2.25246,3.31244 q 2.38496,-2.38496 2.38496,-2.91495 0,-0.1325 0,-0.1325 z m 10.33483,-2.51746 q -1.85497,0 -5.29992,4.10743 2.91496,-0.1325 5.69741,-4.10743 z m 24.90958,2.91495 q 0,1.32498 1.72247,1.32498 v -4.23993 q -1.72247,1.05998 -1.72247,2.91495 z m -32.72695,-2.11996 0.79498,1.72247 q 6.49239,-4.63743 6.49239,-4.90242 h -1.45747 q -1.05998,0 -3.44494,1.45747 -2.38496,1.32498 -2.38496,1.72248 z m 29.282,-1.45748 q -0.79498,1.32498 -0.79498,2.78245 1.19248,0 2.25246,-0.79498 1.19248,-0.79499 1.19248,-1.98747 0,-1.19248 -0.92748,-1.85497 -0.79499,-0.79499 -1.98747,-0.79499 -0.39749,0 -0.92749,1.05999 -0.39749,0.92748 -0.39749,1.58997 z m -15.36974,-1.05998 q -1.19248,0 -2.51745,2.51746 l 0.39749,0.13249 q 0.39749,0 0.52999,0 1.45748,0 2.51746,-2.51745 l -0.3975,-0.1325 q -0.39749,0 -0.52999,0 z m 12.71979,-0.79499 q -1.19248,0 -2.25246,1.58997 -0.92749,1.45748 -0.92749,2.51746 1.45748,0 2.38496,-1.19248 0.92749,-1.19248 1.19248,-2.78245 z m -6.2274,-0.66249 -3.17994,3.17995 q 0.66249,0.1325 0.79498,0.1325 1.05999,0 1.72248,-1.05999 0.66248,-1.05998 0.66248,-2.25246 z m -11.5273,0 q 0,1.05998 1.85497,2.51746 l 2.38496,-2.51746 z m 16.16473,-0.26499 q -0.79499,0 -1.58998,0.66249 -0.66249,0.52999 -1.05998,1.05998 -0.39749,0.39749 -0.39749,0.26499 3.04745,0 3.04745,-1.98746 z m -8.61236,0.26499 v 0.92749 q 1.05998,0 1.58997,-0.92749 z" inkscape:connector-curvature="0"></path>
      <path id="path5262" style="font-style:normal;font-variant:normal;font-weight:normal;font-stretch:normal;font-size:132.49777222px;line-height:100%;font-family:CabinSketch;-inkscape-font-specification:CabinSketch;letter-spacing:7.94986582px;fill:#d45500" d="m 396.73789,692.2832 q -1.05998,0 -3.04745,1.32498 -1.85497,1.32498 -2.38496,1.32498 -6.62489,3.04744 -10.99731,3.04744 -8.34736,0 -15.63474,-4.90241 -7.28738,-5.03492 -7.28738,-14.30976 0,-1.72247 0.92749,-5.43241 1.05998,-3.84244 1.85497,-5.56491 2.91495,-4.23993 10.86481,-6.22739 7.94987,-2.11997 14.04477,-3.31245 6.22739,-1.32498 6.22739,-3.97493 0,-3.97493 -2.64995,-6.62489 -2.51746,-2.78245 -7.15488,-2.78245 -2.91495,0 -7.55238,2.11996 -4.50492,1.98747 -6.35989,1.98747 -3.44494,0 -3.44494,-7.02238 0,-7.81737 13.77977,-7.81737 1.72247,0 5.9624,0.66249 4.23993,0.66249 5.8299,0.66249 0.39749,0 1.45747,0 1.05999,-0.1325 1.58998,-0.1325 3.31244,0 3.31244,2.51746 3.17995,0 3.17995,2.38496 3.70994,0 5.29991,6.09489 1.58997,6.0949 1.58997,11.39481 0,3.44494 -1.05998,10.06983 -1.05998,6.62489 -1.05998,9.93733 0,0.79499 0.26499,2.38496 0.265,1.45748 0.265,2.25247 0,0.13249 -0.1325,0.52999 0,0.39749 0,0.66249 0.66249,1.32497 0.79499,1.45747 0,0.92749 1.32498,1.58998 1.45747,0.52999 3.17994,0.92748 1.72247,0.265 3.04745,1.32498 1.45748,0.92748 1.45748,2.51746 0,5.6974 -3.31245,7.55237 -4.10743,-1.32498 -5.6974,-1.58997 -1.32498,-0.265 -4.76992,-2.64996 -3.44494,-2.38496 -3.70994,-2.38496 z m -20.13966,1.58997 q 1.72247,1.05999 1.98747,1.05999 1.19248,0 1.19248,-2.51746 l -0.66249,-0.1325 q -1.58998,0 -2.51746,1.58997 z m 28.61952,0 q 0,1.32498 5.03491,1.32498 0,-2.78245 -1.32497,-2.78245 -2.91495,0 -3.70994,1.45747 z m -16.29723,-4.90241 q -2.11996,0 -4.37242,1.45747 -2.25247,1.32498 -2.25247,3.44494 l 5.69741,-1.45747 z m -18.94718,2.64995 q 0.265,0.1325 1.19248,0.66249 0.92749,0.39749 1.58997,0.79499 0.79499,0.26499 1.19248,0.26499 0,-0.66249 -1.05998,-1.72247 -0.92748,-1.05998 -1.45747,-1.05998 -0.92749,0 -1.45748,1.05998 z m 35.24441,-1.45747 q -1.45748,0 -1.45748,1.98746 2.25247,0 2.64996,-0.92748 -0.66249,-1.05998 -1.19248,-1.05998 z m -4.63742,-0.1325 q 0,1.19248 0.92748,1.72247 1.05998,-0.66249 1.05998,-1.72247 z m -10.06983,-1.85497 v 2.78245 q 1.32497,0 2.38496,-1.19248 1.05998,-1.32498 1.05998,-2.78245 l -0.1325,-0.52999 q 0,-0.52999 0,-0.66249 l -1.72247,1.72247 0.26499,0.66249 z m 8.61235,-0.79499 q 0,0.3975 0.265,0.79499 0.39749,0.39749 0.66249,0.39749 2.25246,0 2.25246,-3.44494 -0.79499,0 -1.98747,0.66249 -1.19248,0.66249 -1.19248,1.58997 z m -31.93196,-1.85497 q -1.72247,0 -1.98747,1.85497 1.98747,-0.26499 1.98747,-1.85497 z m 1.85497,-6.88988 q 0,8.87735 8.34736,8.87735 3.84243,0 9.67233,-2.25246 5.9624,-2.38496 5.9624,-5.69741 v -0.52999 q 0,-2.38496 -0.13249,-3.57744 0,-1.32497 -0.3975,-3.31244 -0.26499,-2.11997 -1.05998,-3.17995 -0.66249,-1.19248 -2.11996,-1.98746 -1.45748,-0.92749 -3.57744,-0.92749 -0.66249,0 -1.98747,0.66249 -1.32498,0.52999 -1.85497,0.52999 -0.92748,0 -2.11996,0.66249 -1.05999,0.52999 -2.78246,1.72247 -1.58997,1.05998 -1.98746,1.32498 -1.19248,0.66249 -2.64996,4.23993 -1.45747,3.44494 -3.31244,3.44494 z m -7.94987,6.35989 q 0.1325,0.3975 0.52999,0.92749 0.52999,0.39749 0.92749,0.66249 0.39749,0.26499 0.52999,0.26499 0.92748,0 1.58997,-1.58997 0.66249,-1.58998 0.66249,-2.38496 -3.31245,0 -4.23993,2.11996 z m 35.11191,-0.92748 q 0.265,0.92748 1.32498,0.92748 0.26499,0 1.45747,-0.92748 1.19248,-1.05998 1.19248,-1.45748 0,-0.39749 -0.52999,-0.39749 -2.38496,0 -3.44494,1.85497 z m -30.73948,-4.23993 q -1.85497,0 -2.78246,1.98747 2.78246,0 2.78246,-1.98747 z m 35.11191,-1.72247 q -1.05999,0 -2.11997,1.05998 -0.92748,0.92748 -0.92748,1.98747 1.72247,0 2.38496,-0.66249 0.66249,-0.66249 0.66249,-2.38496 z m -37.89437,0.26499 q -0.39749,0 -1.05998,0.52999 -0.66249,0.53 -0.66249,0.79499 l 0.1325,0.39749 q 0.39749,0 1.05998,-0.39749 0.66249,-0.39749 0.66249,-0.66249 v -0.26499 q -0.1325,-0.265 -0.1325,-0.3975 z m 33.38944,-10.59982 q 0,1.45748 0.52999,3.84244 0.66249,2.38496 0.66249,3.84243 0,1.45748 -0.39749,3.17995 2.91495,-0.66249 4.23993,-5.8299 1.32498,-5.16742 1.32498,-10.99732 0,-3.44494 -0.3975,-4.76992 -2.91495,0 -8.21486,3.44494 0.265,1.05999 2.64996,1.58998 2.38496,0.39749 2.91495,0.79498 -0.52999,0.79499 -1.05999,1.32498 -0.52999,0.3975 -0.92748,0.52999 -0.39749,0.1325 -0.79499,0.3975 -0.26499,0.26499 -0.39749,0.92748 -0.1325,0.52999 -0.1325,1.72247 z m -29.28201,9.00985 q 0.3975,-0.39749 0.3975,-1.32498 0,-0.13249 -0.66249,-0.13249 -3.84244,0 -4.63742,1.45747 z m -4.10743,-4.10743 q -0.92748,0 -0.92748,2.64996 1.98747,0 3.44494,-1.72248 -1.32498,-0.92748 -2.51746,-0.92748 z m 1.58998,-1.72247 q 0.26499,0.39749 1.58997,1.05998 1.32498,0.66249 1.72247,0.66249 0.265,0 1.05998,-0.92748 0.79499,-1.05999 0.79499,-1.45748 h -3.57744 q 0.66249,-1.19248 5.8299,-2.91495 5.29991,-1.72247 6.49239,-3.57744 h -0.52999 q -5.6974,0 -5.9624,2.38496 -0.66249,0.26499 -1.85497,0.66249 -1.19248,0.39749 -1.85497,0.66249 -0.66248,0.26499 -1.45747,0.79498 -0.79499,0.3975 -1.32498,1.05999 -0.52999,0.66248 -0.92748,1.58997 z m 23.05461,-8.08237 q 1.45747,0.92749 3.97493,0.92749 1.19248,0 2.51746,-0.92749 -1.98747,-1.45747 -3.57744,-1.45747 -2.25246,0 -2.91495,1.45747 z m -3.70994,-1.19248 -3.70994,1.85497 4.90242,-0.66249 z m 10.59982,-5.29991 -1.19248,1.45748 4.63743,-0.66249 z m 1.98747,-1.58997 4.90242,0.79499 0.1325,-0.3975 q 0.26499,-0.39749 0.39749,-0.79498 0.26499,-0.52999 0.26499,-0.66249 0,-0.52999 -0.52999,-1.19248 -0.39749,-0.66249 -0.66249,-0.66249 -0.79498,0 -2.38496,1.05998 -1.45747,0.92749 -2.11996,1.85497 z m 4.10743,-5.8299 q -0.26499,0.1325 -0.92748,0.26499 -0.52999,0.1325 -0.79499,0.265 -0.265,0.1325 -0.79499,0.39749 -0.52999,0.1325 -0.79498,0.265 -0.265,0.1325 -0.66249,0.39749 -0.3975,0.265 -0.66249,0.66249 -0.1325,0.265 -0.265,0.66249 -0.13249,0.39749 -0.13249,0.92748 2.51745,0 5.03491,-3.84243 z m -6.49239,-2.11997 q 0,0.3975 0.52999,0.92749 0.52999,0.52999 1.19248,0.52999 3.31245,0 3.31245,-2.38496 0,-0.92748 -0.79499,-2.11996 -0.66249,-1.19248 -1.58997,-1.19248 z m -26.23456,-6.49239 q 0,1.98747 0.92749,2.91495 1.45747,0 4.63742,-0.92748 3.31244,-1.05998 4.23993,-2.38496 l 1.32497,1.05998 q 0.1325,0 0.79499,-0.52999 0.79499,-0.52999 1.19248,-0.52999 1.45748,0 3.44494,0.66249 2.11997,0.52999 3.84244,0.52999 0,-3.04745 -1.45748,-3.04745 -0.26499,0 -1.19248,0.265 -0.79498,0.13249 -1.19248,0.13249 -2.51745,-0.13249 -3.44494,-0.13249 -7.41987,0 -13.11728,1.98746 z m 24.24709,-0.39749 q -1.19248,0 -2.11996,1.05998 -0.92749,0.92749 -0.92749,2.25246 0.1325,0 0.66249,0.1325 0.52999,0 0.66249,0 1.32498,0 3.31245,-0.52999 1.98746,-0.66249 1.98746,-1.58997 0,-1.32498 -3.57744,-1.32498 z" inkscape:connector-curvature="0"></path>
      <path id="path5264" style="font-style:normal;font-variant:normal;font-weight:normal;font-stretch:normal;font-size:132.49777222px;line-height:100%;font-family:CabinSketch;-inkscape-font-specification:CabinSketch;letter-spacing:7.94986582px;fill:#d45500" d="m 435.97586,688.70576 q 0,-0.265 1.32498,-2.51746 1.45747,-2.25246 1.45747,-3.84243 0,-1.45748 -0.52999,-4.37243 -0.52999,-3.04745 -0.52999,-4.37243 0,-4.10743 0.92749,-9.67233 0,-3.57744 -0.92749,-15.63474 0.92749,-0.92748 0.92749,-1.72247 -2.38496,-1.85497 -5.16742,-1.85497 -0.39749,0 -1.45747,0.1325 -0.92749,0 -1.58998,0 l -0.92748,-0.66249 v -9.00985 l 0.92748,-0.66249 q 0.3975,-0.39749 2.64996,-0.39749 2.38496,-0.1325 4.23993,-0.79499 1.98746,-0.79499 1.98746,-2.91495 0,-1.19248 -0.39749,-3.70994 -0.39749,-2.51746 -0.39749,-3.84243 0,-9.00985 3.31244,-14.70726 0,0.1325 1.85497,-0.79498 1.98747,-0.92749 4.10743,-1.98747 2.25246,-1.05998 3.04745,-1.19248 0.66249,0 3.84244,-0.39749 3.17994,-0.52999 4.50492,-0.52999 2.11996,0 2.64996,0.13249 0.66248,0 1.58997,0.3975 0.92748,0.39749 1.05998,1.45747 0.265,0.92749 0.265,2.91495 0,3.44495 -0.92749,5.16742 -0.92748,1.58997 -2.38496,1.72247 -1.32498,0.1325 -2.91495,0.52999 -1.58997,0.39749 -3.04745,1.05998 -1.32498,0.66249 -2.25246,3.57744 -0.92748,2.78246 -0.92748,7.68487 0,3.44494 0.92748,6.62489 2.91495,-0.26499 5.16741,-0.26499 4.90242,0 8.08237,0.92748 -0.1325,0.39749 -0.1325,1.19248 0,1.19248 0.52999,3.70994 0.52999,2.51746 0.52999,3.44494 0,0.92748 -1.19248,0.92748 -1.19248,0 -1.45747,1.45748 l -0.79499,-1.05998 q -0.52999,0.1325 -3.44494,0.1325 -2.11997,0 -3.57744,-0.3975 -1.45748,-0.39749 -1.98747,-0.39749 -2.91495,0 -4.50492,2.64995 -1.45748,2.51746 -1.45748,5.56491 0,0.265 0.52999,1.85497 0.66249,1.58997 0.66249,3.84243 0,1.45748 -0.92748,4.63743 -0.79499,3.04745 -0.79499,4.37242 0,0.79499 0.66249,0.79499 -0.1325,0.66249 -0.1325,1.85497 0,2.38496 0.92749,6.35989 0.92748,3.97493 0.92748,6.35989 0,2.51746 -0.52999,7.55238 -0.52999,4.90242 -0.52999,7.28738 h -8.74486 q -0.92748,0 -3.04744,-3.70994 -1.98747,-3.84244 -1.98747,-4.90242 z m 5.8299,-15.10475 q 0,2.64996 4.90242,6.62489 0.1325,-0.39749 0.1325,-2.51746 0,-4.90241 -4.23993,-4.90241 -0.1325,0 -0.52999,0.39749 -0.265,0.265 -0.265,0.39749 z m 3.17995,-14.83975 q 0.26499,1.98747 1.72247,1.98747 v -1.98747 z m -3.17995,-12.85228 q 0.79499,2.64996 0.79499,3.97493 0,0.265 -0.1325,1.58998 0,1.32497 0,2.64995 h -0.66249 q 0.92749,-1.19248 5.03492,-1.19248 0,-1.19248 -2.51746,-2.25246 0.26499,0.1325 0.52999,0.1325 1.05998,0 1.05998,-1.58998 0,-0.26499 -0.1325,-0.79498 0,-0.52999 0,-0.66249 0,0.1325 0.66249,-1.58997 0.66249,-1.72248 1.19248,-3.70994 0.66249,-2.11997 0.79499,-2.78246 0,-0.79498 -1.85497,-2.91495 -1.72247,-2.11996 -2.25246,-2.25246 -1.45748,0 -1.72247,0.66249 0.79498,0.1325 0.79498,1.58997 0,1.45748 -0.39749,1.98747 -0.26499,0.52999 -1.45747,0.52999 -1.32498,0 -3.70994,-0.39749 -2.25246,-0.3975 -3.44494,-0.3975 -2.11997,0 -2.11997,1.32498 0,0.3975 4.37243,1.19248 4.37242,0.66249 5.43241,0.66249 2.64995,0 2.91495,0.79499 -2.38496,0 -2.38496,1.19248 0,0.1325 0,0.52999 0.1325,0.39749 0.1325,0.52999 0,0.79499 -0.92749,1.19248 z m 17.8872,-7.41988 3.31245,1.72248 q 1.05998,-0.66249 1.05998,-1.58998 -1.98747,-0.92748 -2.78246,-0.92748 z m -5.6974,-1.72247 q -0.79499,0 -1.58998,0.92749 -0.66249,0.79498 -0.79498,1.45747 h 4.10743 l 0.79498,-1.45747 q -0.92748,-0.92749 -2.51745,-0.92749 z m -11.52731,-12.71978 q 0,9.53984 4.63742,9.53984 0.79499,0 1.98747,-6.2274 1.19248,-6.22739 1.72247,-11.7923 v -0.66249 q -0.1325,-0.79499 -0.1325,-1.19248 0,-0.52999 1.05998,-1.32498 1.19248,-0.92748 2.25247,-0.92748 -0.1325,-0.66249 -0.92749,-1.85497 -0.79498,-1.19248 -1.45747,-1.45748 -0.92749,0 -4.37243,1.45748 -3.31244,1.32498 -3.84244,1.85497 -0.92748,1.32498 -0.92748,8.61235 0,1.85497 0.79499,2.38496 0.79498,0.53 2.64995,0.53 0.1325,0 0.3975,0 0.26499,-0.1325 0.39749,-0.1325 0,1.19248 -4.23993,1.19248 z m 4.23993,0.52999 h 0.79499 v 0.79498 z m 7.94987,-16.95972 q 0,1.72247 0.39749,2.38496 0.39749,0.66249 1.72247,0.66249 3.17995,0 3.17995,-1.98746 0,-1.05999 -1.05999,-1.58998 -1.05998,-0.66249 -1.05998,-1.58997 -0.39749,0 -1.45747,1.05998 -1.05999,1.05998 -1.72247,1.05998 z" inkscape:connector-curvature="0"></path>
      <path id="path5266" style="font-style:normal;font-variant:normal;font-weight:normal;font-stretch:normal;font-size:132.49777222px;line-height:100%;font-family:CabinSketch;-inkscape-font-specification:CabinSketch;letter-spacing:7.94986582px;fill:#d45500" d="m 484.19678,668.3011 q 0,-6.62489 2.38496,-14.57475 2.38496,-7.94987 5.8299,-13.64727 0.1325,0.1325 0.26499,0.1325 0.79499,0 3.17995,-1.58998 2.51746,-1.72247 3.17995,-1.72247 9.14234,-2.11996 12.18979,-2.11996 v 1.19248 q 2.64996,-0.92749 6.49239,-0.92749 11.9248,0 11.9248,3.57744 3.44494,0 5.69741,2.91495 2.25246,2.78246 3.57744,6.0949 1.45747,3.31244 2.51745,3.84244 v 11.3948 l -2.38496,1.72248 0.66249,0.79498 q -3.57744,2.78246 -15.63473,2.78246 -12.71979,0 -14.97225,-0.1325 -2.11997,-0.1325 -8.61236,-1.05998 -0.13249,-0.79499 -0.79498,-0.79499 -0.1325,0 -0.66249,0.1325 -0.52999,0.13249 -0.79499,0.13249 0,3.84244 0.92749,8.47986 1.05998,4.63742 3.04744,6.75739 1.05999,1.05998 4.90242,2.51746 3.84244,1.45747 4.10743,1.58997 2.38496,1.72247 4.10743,1.72247 3.44495,0 10.46733,-1.72247 7.15488,-1.72247 10.46732,-1.72247 2.91495,0 2.91495,5.43241 0,2.64995 -0.52999,3.31244 -0.39749,0.66249 -1.45747,0.79499 -0.92749,0.1325 -1.58998,1.05998 -0.79498,0.265 -15.50224,2.64996 -12.45479,0 -17.8872,-1.72248 -6.22739,-1.98746 -12.18979,-11.26231 -5.8299,-9.27484 -5.8299,-16.03223 z m 19.60967,23.18711 q 2.91495,0.79499 3.31244,0.92749 0.66249,0.66249 0.79499,0.66249 1.98746,0 3.44494,-1.19248 1.58997,-1.32498 1.58997,-3.17995 -5.03491,0 -5.03491,1.19248 0,-0.39749 -0.52999,-1.05998 -0.3975,-0.66249 -0.66249,-0.66249 -0.265,0 -1.72247,1.32498 -1.32498,1.19248 -1.32498,1.58997 0.1325,0.265 0.1325,0.39749 z m 9.00985,0.92749 q 0.66248,0.66249 0.79498,0.66249 2.64996,0 8.61236,-1.05999 5.9624,-1.19248 7.81737,-1.19248 l 0.79498,0.3975 0.79499,0.26499 q 4.23993,0 4.23993,-2.78245 -2.51746,0 -6.62489,1.05998 -3.97493,0.92749 -5.8299,1.05998 -1.32498,0 -3.70994,0.1325 -2.38496,0.1325 -4.23993,0.265 l -1.85497,0.26499 z m -12.3223,-3.31245 q 0,0.1325 0.3975,0.52999 0.39749,0.265 0.52999,0.265 1.19248,-0.265 2.64995,-1.19248 1.45748,-0.92748 1.45748,-1.32498 0,-0.52999 -0.265,-0.92748 -0.26499,-0.3975 -0.52999,-0.52999 -0.26499,-0.1325 -0.39749,-0.1325 -1.19248,0 -2.51746,1.19248 -1.32498,1.05998 -1.32498,2.11996 z m -5.6974,-4.23993 4.23993,3.44495 q 1.58997,-2.38496 1.58997,-3.04745 l -0.1325,-0.3975 -4.76992,-0.66248 z m -2.38496,-3.97493 q 1.58997,1.19248 1.58997,3.31245 3.04745,-1.58998 3.04745,-5.03492 -3.84243,0 -4.63742,1.72247 z m 1.58997,-7.41987 q -2.51746,3.97493 -2.51746,5.29991 3.84244,0 5.03492,-1.05999 -0.39749,-0.92748 -1.32498,-2.11996 -0.92748,-1.32498 -1.19248,-2.11996 z m -0.52999,-1.85497 q -2.51746,0 -3.17995,0.79498 -0.66248,0.66249 -0.66248,3.31245 1.58997,0 2.64995,-1.19248 1.19248,-1.32498 1.19248,-2.91495 z m -2.78245,-3.84244 -1.58998,2.51746 q 0.1325,0 0.66249,0.1325 0.52999,0 0.66249,0 1.19248,0 2.38496,-0.52999 1.32498,-0.66249 1.32498,-1.72247 0,-0.1325 -0.39749,-0.79499 -0.3975,-0.79499 -0.3975,-1.19248 0.265,-0.66249 0.66249,-1.58997 0.52999,-1.05999 0.66249,-1.72248 0.265,-0.79498 0.265,-1.85496 0,-1.58998 -1.32498,-2.11997 -1.32498,-0.66249 -1.32498,-1.19248 0,-0.52999 0.79499,-2.38496 0.92748,-1.98747 0.92748,-2.64995 0,-1.19248 2.78246,-4.63743 2.78245,-3.57744 2.78245,-5.29991 0.26499,0 1.58997,0.265 1.32498,0.26499 1.72247,0.26499 0.3975,0 0.52999,-0.66248 0.1325,-0.79499 0.3975,-0.92749 0.66249,-0.26499 3.31244,-0.26499 2.64996,-0.1325 4.90242,-0.3975 2.38496,-0.26499 2.38496,-0.92748 -2.25246,-1.05998 -6.2274,-1.05998 -9.00984,0 -13.77976,6.09489 -4.63743,6.0949 -4.63743,15.36974 h 4.23993 v 0.79499 l -4.90242,4.90242 v 2.51746 z m 32.72695,-5.6974 h -4.50493 q -5.43241,0 -5.43241,2.11996 l 0.1325,0.1325 q 0,0.1325 0,0.265 l 1.72247,-0.1325 q 1.72247,-0.1325 3.17995,-0.265 1.58997,-0.26499 3.04745,-0.79498 1.58997,-0.53 1.85497,-1.32498 z m -21.72964,-1.58998 q -0.26499,0 -1.72247,1.32498 -1.32498,1.32498 -1.85497,1.98747 1.05999,-0.265 2.38496,-0.52999 1.32498,-0.265 1.98747,-0.3975 0.66249,-0.13249 1.58997,-0.52999 1.05998,-0.39749 2.25246,-1.05998 -0.39749,-0.1325 -4.10743,-0.79499 z m 4.63742,2.38496 q 2.64996,0.92749 4.63743,0.92749 1.19248,0 1.98746,-0.79499 0.92749,-0.79498 0.92749,-1.98746 -6.62489,0 -7.55238,1.85496 z m 28.75202,-5.16741 q 0,1.85497 -1.45747,2.64996 -1.45748,0.66249 -3.31245,0.52999 -1.72247,-0.1325 -3.17994,0.39749 -1.45748,0.39749 -1.45748,1.85497 9.27484,0 9.93733,-1.85497 0.66249,1.05998 1.85497,1.05998 0,-1.05998 -0.52999,-2.38496 -0.39749,-1.32497 -0.39749,-1.85497 0,-0.39749 0.92748,-1.05998 0.92749,-0.79498 0.92749,-2.91495 0,-5.16741 -3.04745,-5.16741 -0.92749,0 -1.45748,0.52999 -0.39749,0.39749 -0.52999,1.05998 0,0.52999 0,1.85497 1.45748,4.37243 1.72247,4.76992 z m -35.90689,1.58997 q -1.19248,0 -2.11997,0.92749 -0.79499,0.92748 -0.79499,2.11996 1.72248,0 2.25247,-0.66249 0.66249,-0.66248 0.66249,-2.38496 z m -1.05999,-4.37242 q 1.19248,2.25246 19.60967,2.25246 2.38496,0 6.2274,-0.52999 3.97493,-0.52999 6.22739,-0.52999 0,-0.66249 -0.92748,-2.64996 -0.92748,-2.11996 -1.45748,-2.11996 l -0.26499,0.1325 q -0.92749,-2.78246 -5.9624,-4.63743 -4.90242,-1.85496 -8.34736,-1.85496 -11.39481,0 -15.10475,9.93733 z m 27.95703,-11.9248 q 0,1.05998 2.38496,3.17995 2.38496,2.11996 3.17995,2.11996 0.79499,0 2.11996,-0.52999 1.32498,-0.52999 1.32498,-1.19248 0,-0.66249 -0.52999,-2.38496 l -0.52999,-1.72247 q 0,0.79498 -1.58997,0.79498 -1.05999,-0.13249 -2.51746,-1.05998 -1.32498,-0.92748 -1.32498,-2.11996 -3.84243,0 -3.84243,-1.85497 -0.1325,0 -0.53,0.52999 -0.39749,0.39749 -1.32497,0.92748 -0.79499,0.3975 -2.11997,0.3975 -0.52999,0 -1.32498,-0.52999 -0.79498,-0.52999 -1.72247,-0.52999 -0.13249,0 -0.92748,0.13249 -0.66249,0 -0.79499,0 0.265,0.1325 1.19248,1.72247 1.05998,1.58998 1.72247,1.72248 0.1325,0 0.92749,-0.3975 0.79498,-0.52999 1.32498,-0.52999 0.13249,0 1.85496,0.66249 1.72248,0.66249 3.04745,0.66249 z M 518.3812,608.9421 q -1.98746,0 -2.38496,0.92749 1.98747,0 2.38496,-0.92749 z m -3.17994,1.58997 q -2.38496,0 -3.44495,0.92749 3.04745,0 3.44495,-0.92749 z m -5.03492,1.72248 q 0.265,0.39749 0.52999,0.39749 0.39749,0 0.39749,-0.39749 0,-0.53 -0.39749,-0.53 -0.52999,0 -0.52999,0.53 z m 11.6598,-4.50493 q 0,2.78245 -0.92748,3.97493 -0.79499,1.05999 -3.31244,2.11997 -3.44495,1.32498 -17.22471,7.41987 h -2.78246 q 0,-5.8299 1.19248,-6.49239 l 21.19965,-10.73232 0.39749,-0.13249 q 1.45747,0 1.45747,3.84243 z" inkscape:connector-curvature="0"></path>
    </g>
    <g id="g92" transform="matrix(1.422514,0,0,-1.422514,-524.90757,2624.3257)">
      <g id="g94" clip-path="url(#clipPath96)">
        <g id="g100" transform="translate(372.407,1554.2513)">
          <path d="m 0,0 c -1.196,1.661 -0.922,1.586 -1.114,3.612 -0.183,1.918 -0.081,3.946 1.308,5.402 1.992,2.085 5.642,2.951 8.101,4.502 7.227,4.563 13.98,9.961 21.734,13.644 1.381,0.656 0.177,1.654519 -1.197,1.002519 C 20.088,24.008519 12.845,18.478 4.353,13.939 1.325,12.322 -1.806,11.517 -3.124,8.033 -4.249,5.057 -2.6054318,1.1029126 -0.81143181,-1.3870874 0.07356819,-2.6160874 0.895,-1.244 0,0" style="fill:#000000;fill-opacity:1;fill-rule:nonzero;stroke:none" id="path102" inkscape:connector-curvature="0"></path>
        </g>
        <g id="g104" transform="translate(376.6819,1539.7207)">
          <path d="M 0,0 C 0.99,-5.311 8.68,-5.0637377 12.813,-4.6647377 18.351,-4.1287377 24.037563,-2.012 25.349563,4.002 25.673563,5.492 24.339,6.125 24.013,4.632 22.924,-0.357 17.332,-2.315 12.813,-2.864 9.848,-3.224 3.028,-3.35 2.287,0.629 2.006,2.131 -0.279,1.494 0,0" style="fill:#000000;fill-opacity:1;fill-rule:nonzero;stroke:none" id="path106" inkscape:connector-curvature="0"></path>
        </g>
        <g id="g108" transform="translate(402.2604,1579.7876)">
          <path d="M -0.57026224,1.330612 C 0.56073776,8.347612 5.661,13.892 10.816,18.7 c 5.447,5.079 12.12,9.968 19.12,12.651 1.413,0.542 1.56035,1.884563 0.13035,1.336563 C 22.60835,29.828563 15.012,25.715 9.139,20.377 3.669,15.403 -1.105,7.961 -2.287,0.629 c -0.241,-1.494 1.47373776,-1.09051917 1.71673776,0.4164808" style="fill:#000000;fill-opacity:1;fill-rule:nonzero;stroke:none" id="path110" inkscape:connector-curvature="0"></path>
        </g>
        <g id="g112" transform="translate(482.3558,1611.6266)">
          <path d="m 0,0 c 0.179,1.387 2.946,2.571 3.974,3.116 2.672,1.413 5.574,2.401 8.459,3.281 4.565,1.392 8.775025,1.7832608 13.555025,0.4452608 C 31.537025,5.2882608 20.365,-16.955 18.951,-20.486 c -0.569,-1.421 1.059694,-1.461738 1.620694,-0.06074 2.507,6.259 6.568306,11.547738 8.946306,17.875738 1.361,3.621 4.399,11.49 -0.95,13.345 -2.386,0.827 -5.353,0.388 -7.777,0.032 C 17.12,10.168 13.523,9.261 9.998,8.115 6.348,6.928 -0.24530065,3.7405629 -1.6106503,0 -1.8066503,-1.513 -0.193,-1.495 0,0" style="fill:#000000;fill-opacity:1;fill-rule:nonzero;stroke:none" id="path114" inkscape:connector-curvature="0"></path>
        </g>
        <g id="g116" transform="translate(426.8641,1614.7595)">
          <path style="fill:#000000;fill-opacity:1;fill-rule:nonzero;stroke:none" d="m 657.80664,86.498047 c -1.47342,0.06301 -2.98729,0.629504 -4.26758,1.646484 -4.3127,3.428048 -6.78755,9.178894 -10.34765,13.314449 -3.78878,4.4011 -13.1303,6.91381 -14.21289,6.33399 -4.29161,-2.55161 -4.85097,-8.446552 -8.12595,-10.832794 -2.67115,-1.781125 -5.88447,-0.643665 -8.78537,0.695132 -5.62574,2.598142 -5.94452,11.987542 -8.15509,16.975552 -0.91365,2.06134 -5.69866,1.75187 -7.47656,1.60156 -2.7549,-0.23405 -5.47175,-1.10046 -8.19336,-1.5664 -4.0121,-0.68712 -7.93634,-0.76688 -10.02344,3.24414 -1.27545,2.44998 1.74357,7.13406 2.80859,9.3457 1.77683,3.69108 4.36229,7.06731 8.13282,8.83984 1.47621,0.69463 2.3618,-0.91464 0.87699,-1.61249 -3.97794,-3.3758 -4.86301,-7.97788 -6.60942,-12.54571 -1.15842,-3.02544 0.74559,-3.7294 3.48438,-3.73047 3.85212,-0.003 5.71855,0.0838 9.52344,0.57227 2.20949,0.2845 8.22284,0.16236 9.41992,-2.33594 2.2825,-4.75933 2.82736,-10.84472 6.49805,-14.82031 2.7463,-2.974986 7.256,-1.61801 9.42578,1.2539 2.37454,2.76148 3.45566,7.2005 6.41406,7.5 6.12067,-0.0784 11.4308,-1.68909 15.82617,-6.06836 2.10106,-2.09354 3.81482,-4.604686 5.49609,-7.033199 1.95076,-2.816089 3.70253,-5.424723 7.12628,-6.597109 3.02008,-1.031742 5.74328,1.803101 5.86997,3.845113 0.10414,1.673764 -0.37106,4.539408 -0.40416,6.973925 -0.0331,2.43452 2.1622,5.36187 4.08075,7.43287 3.85535,4.1624 9.31373,2.43122 14.59483,2.05223 5.76638,-0.41334 11.15734,-2.67946 16.89258,-3.14648 2.41885,-0.19755 5.04393,0.0355 6.92383,1.71679 2.83756,2.53695 2.2492,7.73425 1.52344,10.97657 -0.84172,3.75442 -4.3095,8.98362 -2.26697,13.05056 4.55105,8.15235 17.41342,6.51064 24.84509,5.75022 5.03096,-0.49064 9.78382,0.97184 13.13242,5.39835 4.85273,6.41484 4.03392,13.45417 0.97305,20.17391 -1.38891,6.26249 -8.90049,11.18567 -9.28463,17.03945 -0.13421,5.58816 5.72981,8.305 10.17135,10.93321 4.70994,2.7871 10.2622,4.1494 14.57812,7.5957 4.5124,3.60305 1.72778,9.23909 -2.99183,12.60487 -6.13248,4.37068 -12.84625,4.9332 -15.10192,13.56505 -0.41656,1.58895 2.04047,2.26063 2.45704,0.67383 1.53956,-5.89091 7.95022,-7.11143 12.84375,-9.19531 4.9719,-2.11717 8.27079,-5.23597 8.77539,-10.83594 1.39784,-15.50298 -33.38527,-13.40665 -25.43946,-29.87695 3.72759,-7.7268 8.8975,-14.2224 9.48047,-23.12695 0.39939,-6.12067 -2.44259,-14.06291 -8.5332,-16.52149 -5.72666,-2.31256 -12.1802,-0.74523 -18.10547,-0.25781 -3.3894,0.27807 -6.88047,0.22454 -9.99609,-1.28711 -5.12007,-2.48434 -4.83574,-8.25479 -3.61719,-12.93359 1.2164,-4.6713 2.16194,-10.18845 -0.74219,-14.4668 -2.12683,-3.12958 -6.13253,-3.70917 -9.625,-3.52344 -9.68399,0.51426 -20.15598,6.80588 -29.38476,0.77539 -5.75457,-3.76086 -2.93499,-10.0626 -4.7129,-15.441403 -0.97162,-2.937004 -3.31578,-4.230023 -5.77148,-4.125 z" transform="matrix(0.93143384,0,0,-0.93143389,-549.96082,124.71663)" id="path118" inkscape:connector-curvature="0"></path>
        </g>
        <g id="g120" transform="translate(423.7557,1589.1653)">
          <path style="fill:#000000;fill-opacity:1;fill-rule:nonzero;stroke:none" d="m 594.42969,153.70898 c -3.94762,0.0362 -7.37345,1.43157 -9.51953,6.38086 -0.74285,1.8269 -1.60406,4.32845 -0.65625,5.83399 1.10367,1.62545 3.32169,1.69958 5.07812,1.46875 0.39974,-0.0524 0.76038,-0.21877 0.99609,-0.4961 0.11087,-0.057 0.22041,-0.12689 0.32422,-0.22656 4.92789,-4.72819 10.66032,-6.63157 16.83789,-8.93554 0.52034,-0.19435 0.83122,-0.50818 0.97266,-0.81446 0.73942,0.0492 1.46935,0.0781 2.17188,0.0488 1.63618,-0.0687 1.64262,-1.3901 0,-1.32031 -5.19059,0.2162 -11.12957,-1.98597 -16.20508,-1.93946 z m 1.40625,1.84766 c 3.16135,-0.11952 6.68178,0.64472 10.04297,1.10156 -6.13892,2.14642 -12.12634,3.509 -17.02735,8.21289 -0.46197,0.27082 -2.07673,0.0103 -2.5039,-0.37497 -0.42746,-0.81006 0.5235,-2.40892 0.9082,-3.42968 1.90422,-4.10308 5.01028,-5.37481 8.58008,-5.50977 z" transform="matrix(0.93143384,0,0,-0.93143389,-546.85242,150.31083)" id="path122" inkscape:connector-curvature="0"></path>
        </g>
        <g id="g124" transform="translate(427.0563,1584.2345)"></g>
        <g id="g128" transform="translate(425.8268,1585.9316)"></g>
        <g id="g132" transform="translate(372.0007,1554.8481)">
          <path d="M 0,0 C -1.265,-0.191 -0.676,3.042 -0.589,3.6 -0.372,4.997 -0.5651748,6.5941311 0.97382517,7.0331311 2.2888252,7.4081311 4.271,6.833 5.612,6.752 7.212,6.654 8.623,7.059 10.177,7.389 10.526,7.386 10.876,7.384 11.227,7.381 11.138,8.196 10.974,8.36 10.738,7.874 10.352,7.404 9.83,7.005 9.351,6.638 8.399,5.905 7.374,5.265 6.354,4.634 5.609,4.173 4.85,3.733 4.082,3.31 2.546,2.465 1.692,0.536 0,0 c -1.452,-0.46 -0.832,-2.749 0.63,-2.287 2.226,0.705 3.433,2.851 5.423,3.985 1.769,1.007 3.539,2.09 5.122,3.374 1.089,0.885 2.237,1.859 2.029,3.378 C 12.953,10.289 9.951,9.762 8.868,9.532 5.027,8.712 -1.43,10.814 -2.621,5.529 -3.285,2.593 -3.0185629,-1.9345192 1.5804371,-1.2415192 3.0874371,-1.0135192 1.495,0.225 0,0" style="fill:#000000;fill-opacity:1;fill-rule:nonzero;stroke:none" id="path134" inkscape:connector-curvature="0"></path>
        </g>
        <g id="g136" transform="translate(383.8762,1561.944)">
          <path d="m 0,0 c 4.255,-1.539 8.44,-3.302 12.281,-5.715 2.058,-1.293 3.709738,-2.6330874 5.119738,-4.694087 0.517,-0.755 -0.740738,-3.476913 -1.081738,-4.356913 -0.548,-1.402 0.424524,-2.898 0.350524,-4.389 -0.076,-1.528 1.154476,-1.521 1.230476,0 0.132,2.664 1.068,4.909 2.384,7.2 0.399,0.693 0.314,1.451 0.095,2.178 -0.601,2 -4.002524,3.2508689 -5.637524,4.3538689 C 10.022476,-2.2401311 5.964,0.357 0.63,2.287 -0.811,2.807 -1.426,0.516 0,0" style="fill:#000000;fill-opacity:1;fill-rule:nonzero;stroke:none" id="path138" inkscape:connector-curvature="0"></path>
        </g>
        <g id="g140" transform="translate(447.7046,1543.6477)">
          <path d="m 0,0 c 0.62,-0.833 -0.063,-2.481 -0.318,-3.344 -0.675,-2.291 -1.699,-4.482 -2.717,-6.635 -2.294,-4.853 -4.932,-9.545 -7.606,-14.196 -2.189,-3.807 -4.6,-7.506 -6.434,-11.501 -1.455,-3.17 -2.196,-6.678 -1.438,-10.126 0.693,-3.156 3.92,-5.219 5.673,-7.734 0.866,-1.245 0.36917,1.954182 -0.50683,3.213182 -1.963,2.818 -2.73417,2.891818 -3.10517,6.531818 -0.397,3.889 1.390176,9.217121 3.302176,12.458121 2.177,3.691 4.625824,6.034879 6.721824,9.772879 2.528,4.513 5.68206049,8.826176 7.6810605,13.6021758 C 2.1620605,-5.7888242 3.763,-1.11 2.047,1.197 1.145,2.409 -0.914,1.228 0,0" style="fill:#000000;fill-opacity:1;fill-rule:nonzero;stroke:none" id="path142" inkscape:connector-curvature="0"></path>
        </g>
        <g id="g144" transform="translate(452.126,1445.3372)">
          <path d="M 0,0 C 0.007,-4.375 -0.84552448,-9.4382623 -2.0605245,-13.690262 -3.3895245,-18.348262 -6.001,-21.223 -9.453,-24.384 c -2.848,-2.608 -5.805,-5.249 -7.15,-8.97 -1.394,-3.853 0.862,-7.649 3.229,-10.52 0.973,-1.181 0.623819,1.448885 -0.340181,2.616885 -3.524,4.277 -1.625819,7.240115 2.013181,11.387115 2.898,3.301 5.8296941,6.454262 8.6416941,9.853262 4.995,6.035 6.2036556,12.5006943 6.1906556,19.92169429 C 3.1293497,1.4339563 -0.002,1.529 0,0" style="fill:#000000;fill-opacity:1;fill-rule:nonzero;stroke:none" id="path146" inkscape:connector-curvature="0"></path>
        </g>
        <g id="g148" transform="translate(428.313,1595.0483)">
          <path d="m 0,0 c -1.466,-2.364 -2.62,-5.635 0.212,-7.457 0.646,-0.415 1.239,0.612 0.599,1.024 -2.203,1.417 -0.856,4.113 0.212,5.834 C 1.429,0.053 0.402,0.647 0,0" style="fill:#000000;fill-opacity:1;fill-rule:nonzero;stroke:none" id="path150" inkscape:connector-curvature="0"></path>
        </g>
        <g id="g152" transform="translate(435.7874,1590.3445)">
          <path d="M 0,0 C 1.094,1.832 0.402,3.939347 -1.168,5.273347 -1.746,5.765347 -2.589,5.264 -2.006,4.768 -0.839,3.778 -0.189,1.996 -1.023,0.599 -1.417,-0.059 -0.391,-0.656 0,0" style="fill:#000000;fill-opacity:1;fill-rule:nonzero;stroke:none" id="path154" inkscape:connector-curvature="0"></path>
        </g>
        <g id="g156" transform="translate(430.5556,1593.7998)">
          <path d="m 0,0 c -0.518,-0.478 -0.746,-1.265 -0.718,-1.951 0.033,-0.863 0.607,-1.397 1.43,-1.504 C 1.536,-3.561 1.91,-2.656 1.918,-2 1.926,-1.355 1.707,-0.547 1.322,-0.021 0.875,0.588 -0.154,-0.002 0.299,-0.62 0.485,-0.874 0.577,-1.168 0.657,-1.469 0.703,-1.646 0.726,-1.819 0.733,-2 0.736,-2.093 0.654,-2.3 0.748,-2.264 0.469,-2.372 0.462,-1.855 0.465,-1.731 0.472,-1.418 0.607,-1.052 0.838,-0.838 1.401,-0.319 0.561,0.518 0,0" style="fill:#000000;fill-opacity:1;fill-rule:nonzero;stroke:none" id="path158" inkscape:connector-curvature="0"></path>
        </g>
        <g id="g160" transform="translate(465.2247,1460.6216)">
          <path d="m 0,0 c 0.077,4.588 -0.964,9.232 -0.545,13.8 0.517,5.638 7.169,6.848301 11.574,8.893301 5.372,2.495 9.677,6.990699 11.486,12.889699 1.896,6.181 0.321,12.991 0.251,19.302 -0.018,1.528 -2.389,1.529 -2.371,0 C 20.466,48.408 21.927,41.748 19.984,35.413 17.788,28.251 9.405,26.583 3.753,23.095 0.481,21.078 -2.333,18.222 -2.854,14.274 -2.6655274,9.1827637 -2.4936181,7.8094785 -1.7661456,3.2258906 -1.7921456,1.6968906 -0.026,-1.527 0,0" style="fill:#000000;fill-opacity:1;fill-rule:nonzero;stroke:none" id="path162" inkscape:connector-curvature="0"></path>
        </g>
        <g id="g164" transform="translate(551.838,1531.1382)">
          <path d="m -1.411327,-1.0416938 c -4.976,0.46099997 -6.7077989,2.4914315 -10.653799,5.6424315 -4.21,3.365 -4.351912,6.8363883 -4.750912,11.8333883 -0.272,3.421 -1.017263,10.629661 -2.491263,13.789661 -1.795,3.847 -6.518699,4.791213 -10.031699,7.036213 -1.293,0.825 -2.482,-1.227 -1.198,-2.047 4.252,-2.715 7.469,-5.916 8.579,-10.945 0.934,-4.234 0.801,-8.697 1.48,-12.982 C -19.041,2.22 -7.83,-1.646 0,-2.371 c 1.523,-0.141 0.09767296,1.1893062 -1.411327,1.3293062" style="fill:#000000;fill-opacity:1;fill-rule:nonzero;stroke:none" id="path166" inkscape:connector-curvature="0"></path>
        </g>
        <g id="g168" transform="translate(542.0668,1498.4587)">
          <path d="m 0,0 c -2.705,8.351 -8.141,13.555 -15.675,17.751 -3.827,2.132 -6.139476,5.21535 -8.947476,8.62735 -3.043,3.7 -5.674524,7.66165 -6.562524,12.29065 -0.288,1.501 -2.574,0.865 -2.287,-0.629 1.578,-8.229 6.16435,-17.062962 13.08835,-21.898962 C -16.70165,13.570038 -13.316,13.947 -9.817,11.073 -6.087,8.008 -3.0859395,5.7967695 -1.6149395,1.2527695 -1.1449395,-0.1962305 0.472,-1.458 0,0" style="fill:#000000;fill-opacity:1;fill-rule:nonzero;stroke:none" id="path170" inkscape:connector-curvature="0"></path>
        </g>
        <g id="g172" transform="translate(440.4149,1611.0963)">
          <path d="M 0,0 C 5.525,-0.255 23.735,-0.004 21.594,-9.307 19.812,-17.055 2.039,-16.94 9.267,-27.48 c 0.86,-1.252 1.839703,-0.068 0.972703,1.197 -1.5419998,2.249 -0.917703,4.15 1.280297,6.047 1.872,1.615 4.417,2.541 6.565,3.724 3.899,2.148 6.911,5.759 5.873,10.486 -0.948,4.322 -6.319,6.062 -10.03,6.94 C 9.375,1.989 4.9208242,1.2141153 0.2688242,1.4301153 -1.2601758,1.5011153 -1.522,0.071 0,0" style="fill:#000000;fill-opacity:1;fill-rule:nonzero;stroke:none" id="path174" inkscape:connector-curvature="0"></path>
        </g>
        <g id="g176" transform="translate(452.2788,1576.4893)">
          <path d="M 0,0 C 1.589,-1.063 3.174,-2.119 4.558,-3.446 6.793,-5.59 4.982,-7.679 3.19,-9.365 c -2.408,-2.269 -4.627,-4.723 -6.659,-7.333 -3.006,-3.865 -7.336,-10.126 -4.337,-15.101 0.789,-1.308 1.8991153,0.151824 1.1071153,1.465824 -1.799,2.983 0.8856484,7.216649 2.4656484,9.815649 2.018,3.324 5.0762363,5.470527 7.8062363,8.222527 1.874,1.891 5.168,4.31 4.433,7.437 C 7.239,-1.594 2.8351153,-0.48647264 0.25611531,1.2405274 -1.0178847,2.0945274 -1.263,0.845 0,0" style="fill:#000000;fill-opacity:1;fill-rule:nonzero;stroke:none" id="path178" inkscape:connector-curvature="0"></path>
        </g>
        <g id="g180" transform="translate(443.8626,1406.0134)">
          <path d="m 0,0 c 3.59,-2.196 8.118,-4.638 9.548,-8.878 1.5,-4.451 -1.968,-9.362 -3.157,-13.521 -0.908,-3.178 -1.258,-6.876 0.089,-9.982 1.687,-3.894 5.231,-5.974 9.085,-7.344 1.444,-0.513 1.29965,1.01665 -0.13135,1.52565 -4.755,1.691 -8.1949997,4.753044 -8.2199997,10.057044 -0.023,4.551 4.0507427,10.037699 5.3247427,14.261699 C 15.026393,-5.6386066 7.382,-1.734 1.197,2.047 -0.111,2.846 -1.302,0.795 0,0" style="fill:#000000;fill-opacity:1;fill-rule:nonzero;stroke:none" id="path182" inkscape:connector-curvature="0"></path>
        </g>
        <g id="g184" transform="translate(462.9601,1374.4012)">
          <path d="m 0,0 c 2.185,0.017 4.388,0.178 6.535,-0.309 3.358,-0.763 4.036,-4.271 4.669,-7.136 1.001,-4.534 2.171,-8.593 4.431,-12.679 3.937,-7.121 10.484,-9.637 18.356,-9.502 1.527,0.025 0.724527,1.320703 -0.806473,1.295703 -4.294,-0.074 -7.852527,1.472297 -11.334527,4.213297 -3.265,2.571 -5.107,6.689 -6.658,10.427 C 13.547,-9.72 14.165,-2.5864668 11.267,0.77753318 8.322,4.1995332 4.14,2.401 0,2.371 -1.528,2.359 -1.529,-0.012 0,0" style="fill:#000000;fill-opacity:1;fill-rule:nonzero;stroke:none" id="path186" inkscape:connector-curvature="0"></path>
        </g>
        <g id="g188" transform="translate(462.0246,1636.6672)"></g>
        <g id="g192" transform="translate(564.9389,1524.1311)">
          <path d="M 0,0 C 2.077,0.314 3.797,-2.715 4.659,-4.165 5.93,-6.305 5.9011153,-8.2847637 5.4991153,-10.781764 5.0601153,-13.497764 3.937,-15.703 1.945,-17.37 c -1.934,-1.617 -3.692,-3.271 -5.182,-5.317 -6.329,-8.695 -3.932,-21.085 -3.876,-31.055 0.008,-1.528 0.9004669,0.487182 0.8924669,2.016182 -0.037,6.537 -0.08894,11.722879 0.6270605,18.247879 0.371,3.381 2.2024726,5.981939 3.9464726,8.901939 1.702,2.847 4.445,4.735 6.863,6.907 3.615,3.247 4.55,7.821 2.684,12.237 C 6.481,-2.078 3.702,2.943 -0.63,2.287 -2.138,2.058 -1.495,-0.226 0,0" style="fill:#000000;fill-opacity:0.27096779;fill-rule:nonzero;stroke:none" id="path194" inkscape:connector-curvature="0"></path>
        </g>
        <g id="g196" transform="translate(553.1897,1475.9998)">
          <path d="m 0,0 c 0.547,-3.093 1.418,-6.116 -0.811,-8.794 -1.498,-1.802 -3.722,-2.978 -5.739,-4.096 -4.027,-2.234 -7.549,-4.446 -10.942,-7.602 -3.846,-3.575 -7.143,-7.754 -10.02,-12.135 -3.061,-4.659 -2.958,-9.63 -4.609,-14.769 -0.469,-1.459 1.283352,0.207006 1.748352,1.655006 2.030678,5.1196 2.364288,9.369637 5.552351,13.910346 3.453,4.914 8.830297,10.120648 13.729297,13.624648 3.684,2.634 8.036,4.066 11.417,7.172 3.539,3.253 1.4952911,7.7208242 0.7512911,11.93282421 C 0.81029111,2.4028242 -0.264,1.495 0,0" style="fill:#000000;fill-opacity:0.22903227;fill-rule:nonzero;stroke:none" id="path198" inkscape:connector-curvature="0"></path>
        </g>
        <g id="g200" transform="translate(517.3501,1427.6908)">
          <path d="m 0,0 c 1.63,-2.185 -0.36,-5.61 -1.432,-7.616 -1.982,-3.703 -4.592,-7.09 -7.201,-10.365 -2.14,-2.685 -4.385,-5.28 -6.62,-7.885 -2.833,-3.303 -4.854,-7.036 -6.734,-10.957 -3.673,-7.658 -6.385,-14.759 -7.252,-23.26 -0.594,-5.823 -0.997,-15.31 4.969,-18.726 1.329,-0.76 0.812213,2.238437 -0.513787,2.998437 -3.107,1.779 -3.886403,5.349349 -2.621388,13.012749 1.265015,7.6634 5.948561,22.775089 13.166613,32.387377 C -10.128563,-25.245437 -6.583,-19.488 -2.742,-14.101 -0.285,-10.653 5.354,-3.234 2.047,1.197 1.144,2.407 -0.915,1.227 0,0" style="fill:#000000;fill-opacity:1;fill-rule:nonzero;stroke:none" id="path202" inkscape:connector-curvature="0"></path>
        </g>
        <g id="g204" transform="translate(479.3225,1423.3551)">
          <path d="m 0,0 c -1.424,4.939 -2.294,9.853 -1.081,14.932 1.202,5.028 4.812,9.11 7.03,13.698 3.98,8.235 4.864,17.336 3.094,26.256 -0.297,1.5 -2.582,0.863 -2.286,-0.629 C 8.835,43.785 5.3133881,34.711437 -0.22961189,25.665437 -2.5726119,21.839437 -3.436,17.182 -3.918,12.619 -4.397,8.087 -3.0003516,4.2506484 -2.0181758,2.0582421 -1.5951758,0.59124214 0.424,-1.472 0,0" style="fill:#000000;fill-opacity:1;fill-rule:nonzero;stroke:none" id="path206" inkscape:connector-curvature="0"></path>
        </g>
        <g id="g208" transform="translate(384.6842,1544.1947)">
          <path d="m 0,0 c 6.404,-0.992 10.5,-6.929 14.337,-11.584 4.072,-4.942 5.19,-12 7.547,-17.784 0.284,-0.698 1.432,-0.393 1.142,0.316 -2.456,6.029 -3.692,13.096 -7.851,18.306 C 11.317,-5.915 6.855,0.129 0.315,1.143 -0.433,1.259 -0.754,0.116 0,0" style="fill:#000000;fill-opacity:1;fill-rule:nonzero;stroke:none" id="path210" inkscape:connector-curvature="0"></path>
        </g>
        <g id="g212" transform="translate(385.1549,1546.2207)">
          <path d="m 0,0 c 5.163,1.299 9.784,2.229 15.012,0.66 2.338,-0.702 4.553,-1.742 6.674,-2.939 1.605,-0.907 2.845,-1.926 4.662,-2.398 0.741,-0.193 1.055,0.951 0.316,1.143 -2.293,0.595 -4.133,2.191 -6.213,3.27 C 18.498,0.752 16.396,1.483 14.293,2.114 9.382,3.586 4.501,2.356 -0.315,1.143 -1.056,0.957 -0.741,-0.187 0,0" style="fill:#000000;fill-opacity:1;fill-rule:nonzero;stroke:none" id="path214" inkscape:connector-curvature="0"></path>
        </g>
        <g id="g216" transform="translate(385.4344,1549.5996)">
          <path d="m 0,0 c 0.347,3.071 7.939,4.739 10.28,5.501 4.812,1.568 9.163,3.847 14.387,3.416 0.762,-0.061 0.757,1.124 0,1.186 C 18.833,10.583 13.6,7.88 8.2,6.059 5.432,5.125 -0.778,3.596 -1.186,0 -1.272,-0.759 -0.085,-0.75 0,0" style="fill:#000000;fill-opacity:1;fill-rule:nonzero;stroke:none" id="path218" inkscape:connector-curvature="0"></path>
        </g>
        <g id="g220" transform="translate(379.0727,1551.8132)">
          <path d="M 0,0 C 0.765,0 0.765,1.186 0,1.186 -0.765,1.186 -0.765,0 0,0" style="fill:#000000;fill-opacity:1;fill-rule:nonzero;stroke:none" id="path222" inkscape:connector-curvature="0"></path>
        </g>
        <g id="g224" transform="translate(380.9557,1547.0178)">
          <path d="M 0,0 C 0.765,0 0.765,1.186 0,1.186 -0.765,1.186 -0.765,0 0,0" style="fill:#000000;fill-opacity:1;fill-rule:nonzero;stroke:none" id="path226" inkscape:connector-curvature="0"></path>
        </g>
        <g id="g228" transform="translate(377.0658,1548.2913)">
          <path d="M 0,0 C 0.765,0 0.765,1.186 0,1.186 -0.765,1.186 -0.765,0 0,0" style="fill:#000000;fill-opacity:1;fill-rule:nonzero;stroke:none" id="path230" inkscape:connector-curvature="0"></path>
        </g>
        <g id="g232" transform="translate(381.7234,1543.4451)">
          <path d="M 0,0 C 0.765,0 0.765,1.186 0,1.186 -0.765,1.186 -0.765,0 0,0" style="fill:#000000;fill-opacity:1;fill-rule:nonzero;stroke:none" id="path234" inkscape:connector-curvature="0"></path>
        </g>
        <g id="g236" transform="translate(383.9063,1540.2751)">
          <path d="M 0,0 C 0.765,0 0.765,1.186 0,1.186 -0.765,1.186 -0.765,0 0,0" style="fill:#000000;fill-opacity:1;fill-rule:nonzero;stroke:none" id="path238" inkscape:connector-curvature="0"></path>
        </g>
        <g id="g240" transform="translate(387.0767,1540.8817)">
          <path d="M 0,0 C 0.765,0 0.765,1.186 0,1.186 -0.765,1.186 -0.765,0 0,0" style="fill:#000000;fill-opacity:1;fill-rule:nonzero;stroke:none" id="path242" inkscape:connector-curvature="0"></path>
        </g>
        <g id="g244" transform="translate(383.3604,1551.3558)">
          <path d="M 0,0 C 0.765,0 0.765,1.186 0,1.186 -0.765,1.186 -0.765,0 0,0" style="fill:#000000;fill-opacity:1;fill-rule:nonzero;stroke:none" id="path246" inkscape:connector-curvature="0"></path>
        </g>
        <g id="g248" transform="translate(388.2136,1534.5605)">
          <path d="m 0,0 c 3.356,-2.766 6.239,-1.974 10.187,-0.977 2.634,0.665 5.337,1.161 8.039,1.463 1.039,0.115 2.081,0.149 3.125,0.108 1.629,-0.065 1.787,0.084 0.066,0.185 -2.284,0.135 -4.548,0.582 -6.842,0.45 C 12.752,1.125 10.851,0.154 9.156,-0.44 7.87,-0.889 4.0521909,-2.2271304 3.0191909,-0.86713038 2.2801909,0.10686962 1.517,-0.098 0.39,0.37 -1.333,1.082 -3.942,1.343 -5.74,0.991 -7.232,0.699 -7.372,-1.484 -7.412,-2.626 c -0.156,-4.437 0.383,-8.849 4.077,-11.68 2.085,-1.599 5.593,-0.698 7.912,-0.316 2.791,0.458 5.541,1.257 8.133,2.391 5.328,2.328 10.059,4.7 15.891,5.657 1.507,0.247 1.268236,1.4557031 -0.226764,1.2107031 C 20.229775,-6.7187528 14.073276,-9.8733559 6.742,-11.75 c -3.86,-1.004 -8.511,-2.992267 -10.916,1.061733 -0.938,1.5790004 -1.8392968,5.1308246 -1.9322968,6.9788246 -0.09,1.756 1.1602968,2.4674424 2.9602968,2.3664424 1.151,-0.065 2.361,-0.282 3.396,-0.809 0.748,-0.382 1.013,-1.228 1.713,-1.637 1.897,-1.112 3.4669563,0.024262 5.3739563,0.7792623 1.972,0.781 4.0009997,1.3369563 6.0079997,2.01795626 1.761,0.598 3.799088,1.0593497 5.618088,0.8773497 1.553,-0.156 5.851082,-1.78730596 7.731786,1.17234434 C 25.23683,4.0299126 17.833,2.855 15.362,2.473 12.904,2.095 10.482,1.552 8.076,0.932 5.584,0.29 3.789,-0.064 1.676,1.676 0.506,2.641 -1.181,0.973 0,0" style="fill:#000000;fill-opacity:1;fill-rule:nonzero;stroke:none" id="path250" inkscape:connector-curvature="0"></path>
        </g>
        <g id="g252" transform="translate(487.8041,1609.6283)">
          <path d="m 0,0 c 0.484,2.739 4.909,4.195 7.12,4.984 3.098,1.105 6.965,2.107 10.234,1.25 5.848,-1.533 -3.993,-14.682 -8.517,-14.558 -1.531,0.042 -1.458794,-1.119291 0.067206,-1.161291 4.357,-0.121 7.030115,3.1869092 9.189115,6.4749092 1.872,2.84999996 3.913588,7.5907334 0.467588,10.2037334 -2.047291,1.3937031 -8.186527,0.014527 -11.6485271,-1.0594727 -3.196,-0.992 -7.03984881,-3.2006181 -7.58643671,-6.10873338 C -0.93705481,-1.4688545 -0.266,-1.505 0,0" style="fill:#000000;fill-opacity:1;fill-rule:nonzero;stroke:none" id="path254" inkscape:connector-curvature="0"></path>
        </g>
        <g id="g256" transform="translate(417.8136,1527.4138)">
          <path d="m 0,0 c 2.698,-2.031 7.291,-2.127 10.517,-2.117 3.668,0.012 7.247,1.154 10.907,1.263 1.525,0.047 1.53,1.81314552 0,1.76614552 -3.133,-0.093 -6.158794,-1.37764843 -9.268794,-1.70264843 C 8.904206,-1.1295029 3.1607335,-0.86067869 0.45773346,1.1733213 -0.76526654,2.0933213 -1.206,0.907 0,0" style="fill:#000000;fill-opacity:1;fill-rule:nonzero;stroke:none" id="path258" inkscape:connector-curvature="0"></path>
        </g>
        <g id="g260" transform="translate(438.2701,1494.1201)">
          <path d="m 0,0 c 2.263,0.375 5.348,0.594 6.139,-2.098 0.728,-2.478 -0.46,-5.533 -1.306,-7.83 -2.096,-5.695 -5.408,-11.11 -8.936,-16.027 -1.997,-2.782 -4.419,-5.234 -6.462,-7.987 -2.856,-3.848 -4.793,-8.477 -5.248,-13.27 -0.387,-4.083 0.447,-7.654 3.069,-10.845 2.645,-3.222 6.701,-5.289 10.12,-7.549 1.281,-0.846 0.8530548,1.611236 -0.4149452,2.449236 -3.727,2.464 -6.4590548,4.263764 -8.9880548,8.081764 -3.184,4.811 -0.929913,10.513388 1.509087,15.175388 4.5964219,6.036061 9.5150607,10.444164 13.7557871,17.123262 C 6.4488741,-17.56035 7.834,-10.919 8.603,-4.75 9.36,1.308 4.567,3.148 -0.63,2.287 -2.136,2.037 -1.495,-0.248 0,0" style="fill:#000000;fill-opacity:1;fill-rule:nonzero;stroke:none" id="path262" inkscape:connector-curvature="0"></path>
        </g>
        <g id="g264" transform="translate(481.7323,1528.2949)">
          <path d="m 0,0 c -3.698,3.419 -4.725,8.596 -3.777,13.414 1.033,5.244 5.129,7.676 9.259,10.415 2.593,1.719 5.147,3.476 6.814,6.165 2.079,3.355 2.16,7.774 2.189,11.58 0.01,1.529 -2.361,1.528 -2.371,0 C 12.082,37.206 9.8140385,33.28835 6.6100385,29.97835 3.7820385,27.05835 1.915,24.54 -1.26,22.038 -8.339,16.459 -8.105,4.268 -1.676,-1.676 -0.556,-2.713 1.125,-1.04 0,0" style="fill:#000000;fill-opacity:1;fill-rule:nonzero;stroke:none" id="path266" inkscape:connector-curvature="0"></path>
        </g>
        <g id="g268" transform="translate(384.9974,1537.9424)">
          <path d="M 0,0 C 0.765,0 0.765,1.186 0,1.186 -0.765,1.186 -0.765,0 0,0" style="fill:#000000;fill-opacity:1;fill-rule:nonzero;stroke:none" id="path270" inkscape:connector-curvature="0"></path>
        </g>
        <g id="g272" transform="translate(389.0518,1539.1943)">
          <path d="M 0,0 C 0.765,0 0.765,1.186 0,1.186 -0.765,1.186 -0.765,0 0,0" style="fill:#000000;fill-opacity:1;fill-rule:nonzero;stroke:none" id="path274" inkscape:connector-curvature="0"></path>
        </g>
        <g id="g276" transform="translate(383.3604,1555.9451)">
          <path d="M 0,0 C 0.765,0 0.765,1.186 0,1.186 -0.765,1.186 -0.765,0 0,0" style="fill:#000000;fill-opacity:1;fill-rule:nonzero;stroke:none" id="path278" inkscape:connector-curvature="0"></path>
        </g>
        <g id="g280" transform="translate(378.6634,1541.4978)">
          <path d="m 0,0 c -2.284,2.654 -6.244,6.578 -5.476,10.434 0.518,2.597 5.195,4.945 7.107,5.966 1.349,0.721 0.151,2.767 -1.197,2.048 C -2.622,16.814 -7.131,14.227 -7.88,10.47 -8.778,5.969 -4.33,1.406 -1.676,-1.676 -0.677,-2.838 0.992,-1.152 0,0" style="fill:#000000;fill-opacity:1;fill-rule:nonzero;stroke:none" id="path282" inkscape:connector-curvature="0"></path>
        </g>
      </g>
    </g>
    <text transform="scale(0.94999492,1.0526372)" style="font-style:normal;font-variant:normal;font-weight:normal;font-stretch:normal;font-size:163.11178589px;font-family:Castellar;-inkscape-font-specification:Castellar;writing-mode:lr-tb;fill:#1a1a1a;fill-opacity:1;fill-rule:nonzero;stroke:none" id="text284" x="188.45662" y="585.35144">
      <tspan id="tspan286" x="188.45662" y="585.35144"></tspan>
    </text>
    <g id="text3477" style="font-style:normal;font-variant:normal;font-weight:normal;font-stretch:normal;font-size:82.81110382px;line-height:125%;font-family:CabinSketch;-inkscape-font-specification:CabinSketch;text-align:center;letter-spacing:0.47699201px;word-spacing:0px;text-anchor:middle;fill:#000000;fill-opacity:1;stroke:none;stroke-width:1px;stroke-linecap:butt;stroke-linejoin:miter;stroke-opacity:1">
      <path id="path5282" d="m 389.28949,439.5328 0.24843,-42.39928 v -3.06401 q 0,-1.24217 -7.28738,-1.24217 -0.49686,0 -1.65622,0.0828 -1.15936,0 -1.73903,0 -5.46554,0 -5.46554,-0.91092 0,-0.91092 0.82811,-2.31871 0.82812,-1.4906 0.82812,-2.73277 l 0.0828,-0.16562 q 0.16562,-0.16562 0.24843,-0.24843 0.16562,-0.16563 0.41406,-0.33125 0.33124,-0.16562 0.66248,-0.24843 0.41406,-0.0828 1.07655,-0.16562 0.66249,-0.0828 1.4906,-0.0828 v 0.7453 q 4.88585,0 14.65756,0.33124 9.85453,0.24843 14.82319,0.24843 3.22963,0 4.88586,-0.0828 0.99373,0.33125 0.99373,2.31871 0,2.48434 -0.49687,3.22964 -0.57967,0.0828 -3.39525,0.33124 -2.73277,0.24843 -3.31245,0.24843 -1.65622,0.0828 -4.55461,0.7453 -2.89839,0.66249 -4.63742,0.7453 -0.57968,2.15309 -0.57968,6.45927 0,3.80931 0.33125,11.1795 0.33124,7.37019 0.33124,11.1795 0,3.97493 -0.24843,8.1983 -0.24843,4.14055 -0.24843,6.45926 0,0.16563 -0.0828,0.66249 0,0.41406 -0.0828,0.66249 0,0.16562 -0.0828,0.49687 -0.0828,0.33124 -0.24843,0.49686 -0.0828,0.16563 -0.33124,0.33125 -0.16563,0.24843 -0.57968,0.33124 -0.33125,0.0828 -0.7453,0.0828 -0.33125,0 -0.91092,-0.33124 -0.57968,-0.24843 -0.91093,-0.24843 l -0.41405,0.0828 q -0.41406,0.16562 -0.99374,0.24843 -0.57967,0.16562 -0.82811,0.16562 -0.33124,0 -1.24216,-0.66249 -0.82811,-0.66248 -0.82811,-0.82811 z m 5.05147,-3.06401 q -1.24216,1.24217 -1.4906,1.98747 1.57341,-0.33125 1.57341,-1.40779 0,-0.0828 -0.0828,-0.33124 v -0.24844 z m -2.9812,0.57968 q 0.41406,0.41406 0.82811,0.41406 0.49687,0 1.73904,-2.15309 1.24216,-2.15309 1.24216,-2.9812 h -0.82811 v -1.40779 l -2.48433,0.91092 z m 2.64996,-3.64369 v 0.41406 h -0.66249 z m -3.14682,-4.30618 q 0,0.33125 0.49686,0.91093 0.57968,0.49686 0.7453,0.49686 0,-1.07654 1.32498,-2.2359 1.32498,-1.15935 1.4906,-2.07027 h -0.24843 q -0.82811,0 -2.31871,0.91092 -1.4906,0.82811 -1.4906,1.98746 z m 4.30617,-1.40778 q -0.57967,0.24843 -1.24216,0.91092 -0.66249,0.66249 -0.66249,1.32498 1.07654,0 1.4906,-0.41406 0.49687,-0.49687 0.66249,-1.73903 -0.16562,-0.0828 -0.24844,-0.0828 z m -0.24843,-5.05148 -2.56714,3.56088 3.06401,-1.4906 q 0.0828,-0.41406 0.0828,-0.66249 0,-1.24217 -0.57968,-1.40779 z m -2.56714,0.99373 q -0.49687,0.24843 -0.49687,1.07655 0.16562,0 0.24843,-0.16563 0.16563,-0.16562 0.24844,-0.33124 l 0.0828,-0.24843 z m -0.49687,-2.07028 v 1.07655 q 1.73903,-0.57968 2.48433,-1.32498 0.7453,-0.7453 0.7453,-2.2359 0,-1.24217 -0.16562,-1.57341 z m -0.57968,-2.9812 q 0,0.82812 0.57968,0.99374 2.48433,-2.2359 3.06401,-3.56088 -1.32498,0 -2.48433,0.7453 -1.15936,0.66249 -1.15936,1.82184 z m 3.06401,-6.62488 q -1.98746,1.32497 -1.98746,3.64368 2.64995,0 2.64995,-1.57341 0,-1.07654 -0.66249,-2.07027 z m -3.06401,0 q 0,1.40778 0.57968,1.4906 1.4906,-1.32498 2.48433,-3.06402 l -0.33124,-0.49686 q -2.73277,0 -2.73277,2.07028 z m 2.73277,-5.63116 -1.15936,2.07028 h 1.15936 z m -0.66249,-1.4906 q -1.4906,0.0828 -1.4906,2.9812 1.57341,-1.32498 1.57341,-2.48433 l -0.0828,-0.49687 z m 0.99373,-4.72023 q -1.40779,3.31244 -1.4906,3.56088 l 0.49687,0.16562 q 1.07654,0 1.07654,-1.98747 l -0.0828,-0.33124 q 0,-0.33125 0,-0.7453 0,-0.41406 0,-0.66249 z m 1.07655,-7.03895 q -0.0828,0.24844 -0.57968,1.73904 -0.41406,1.4906 -0.49687,1.73903 -0.0828,0.41406 -0.57967,1.15936 -0.41406,0.66248 -0.41406,0.91092 0.49687,-0.16562 0.82811,-0.41406 0.41406,-0.24843 0.57968,-0.66249 0.24843,-0.49686 0.41405,-0.7453 0.16563,-0.33124 0.16563,-0.91092 0.0828,-0.66249 0.0828,-0.91092 0,-0.24843 0,-0.99373 0,-0.7453 0,-0.91093 z m -2.56715,1.98747 q 0,0.24843 -0.41405,1.15936 -0.41406,0.91092 -0.57968,1.40778 0.66249,0 1.57341,-1.15935 0.99373,-1.15936 0.99373,-2.2359 0,-0.16562 -0.41405,-0.41406 -0.33125,-0.24843 -0.66249,-0.24843 0,-1.15935 0.24843,-1.98747 0.24844,-0.91092 0.49687,-1.32497 l 0.24843,-0.41406 v 1.82185 q 0.91093,0 2.07028,-0.99374 1.15936,-0.99373 1.15936,-1.98746 -5.2171,0 -5.2171,3.14682 0,1.15935 0.24843,1.98746 0.24843,0.82812 0.24843,1.24217 z m -3.56087,-5.2171 q 0.16562,0.66249 1.07654,0.66249 1.07654,0 1.4906,-0.24843 0.49687,-0.33125 0.99373,-1.32498 -0.0828,0 -0.66249,-0.0828 -0.49686,-0.0828 -0.66248,-0.0828 -1.82185,0 -2.2359,1.07654 z m 9.19203,-0.33124 v 0.99373 h 0.49686 v -0.99373 z m 1.57341,-0.57968 v 1.57341 h 3.56088 q 0.0828,0 0.33124,-0.33124 0.24843,-0.33125 0.24843,-0.49687 0,-0.82811 -2.07027,-0.82811 -0.16563,0 -0.91093,0.0828 -0.7453,0 -1.15935,0 z m -22.52462,-1.07655 v 2.40153 q 4.22337,0 5.13429,-1.32498 -0.33125,0 -2.64996,-0.49687 -2.2359,-0.57968 -2.48433,-0.57968 z m 9.19203,0.57968 q -2.07028,0 -4.05774,1.40779 0.49686,0 1.4906,0.0828 0.99373,0 1.57341,0 2.64995,0 2.64995,-0.7453 0,-0.7453 -1.65622,-0.7453 z m 18.46688,1.07655 0.41405,0.33124 h 5.9624 q 0,-0.91092 -2.40152,-0.91092 -3.89212,0.57968 -3.97493,0.57968 z" inkscape:connector-curvature="0"></path>
      <path id="path5284" d="m 446.41445,440.60935 v -16.3966 q 0,-8.9436 -1.4906,-12.25604 h -0.0828 q -0.41406,0 -2.73277,-1.32498 -2.2359,-1.40779 -2.40152,-1.73903 0,0.0828 -2.48433,0.49686 -2.48433,0.33125 -5.13429,1.65622 -2.64996,1.24217 -3.06401,3.47807 -0.49687,1.98747 -0.49687,4.63742 -0.66249,11.01388 -0.66249,13.16697 0,2.07028 0.0828,3.06401 l -0.49687,0.49686 q 1.57341,2.48434 1.57341,3.22964 0,1.4906 -1.07654,1.4906 h -6.04522 q -0.24843,-0.49687 -0.82811,-0.57968 -0.49686,-0.0828 -0.66249,-0.49687 0,-0.57967 -0.0828,-3.39525 0,-2.89839 0,-3.39526 0,-5.54834 0.7453,-16.56222 0.82811,-11.09669 0.82811,-16.56222 0,-2.73277 -0.33124,-8.03268 -0.24843,-5.38272 -0.24843,-8.19829 h 6.12802 l 1.07654,0.49686 v 4.30618 q 0,13.99508 0.49687,13.99508 l 0.49687,1.07654 q 7.70143,-2.56714 12.00761,-2.56714 5.63115,0 9.52327,4.96866 3.97494,4.96867 3.97494,10.59982 0,2.56715 -0.82812,8.03268 -0.74529,5.46553 -0.74529,8.1983 0,1.32498 0.0828,1.98747 -0.49687,0 -0.49687,0.41405 l 0.24843,1.07655 q 0.24844,0.99373 0.49687,2.2359 0.24843,1.15935 0.24843,1.82184 0,0.82811 -1.65622,1.15936 -1.57341,0.33124 -3.22963,0.33124 -1.57341,0 -1.57341,0.0828 -1.15936,-0.66249 -1.15936,-0.99373 z m 2.48433,-12.33886 v 10.93107 q 2.15309,0 2.48434,-0.66249 0.0828,-0.24843 0.0828,-0.57968 0,-1.32498 -0.33125,-3.97493 -0.24843,-2.64996 -0.24843,-4.22337 h -0.41405 q 1.24216,-1.24216 1.24216,-2.48433 h -0.91092 q 0,-0.57968 0.82811,-2.40152 0.82811,-1.82185 0.82811,-3.39526 0,-0.82811 -0.49686,-0.82811 l -3.06402,1.98747 q 0,0.99373 0.57968,0.99373 -1.57341,1.24217 -1.57341,2.07028 l 0.99373,-0.49687 q -0.0828,0.0828 -0.0828,0.24844 0,0.66248 0.66249,0.82811 -0.16562,0.16562 -0.33124,0.24843 -0.24844,0.24843 -0.24844,0.7453 0,0.0828 0.24844,0.33124 0.24843,0.16563 0.33124,0.16563 z m -26.08549,9.02641 q 0,0.16563 0.57967,0.41406 0.57968,0.24843 0.99374,0.24843 1.65622,0 1.65622,-2.07028 0,-1.32497 -0.57968,-1.98746 -1.32498,0.57968 -1.57341,0.57968 l 2.07028,-2.07028 q -0.24843,-1.65622 -0.82811,-1.65622 l -0.24844,0.0828 0.57968,-1.07655 q -2.40152,0.16563 -3.14682,1.65623 0,0.41405 0.57968,0.41405 0.57968,0 0.99373,-0.41405 l -0.99373,1.4906 0.49686,0.49686 q -0.57967,0.24844 -0.57967,0.99374 0,0.16562 0.24843,0.99373 0.33124,0.7453 0.33124,1.07654 -0.57967,0.41406 -0.57967,0.82811 z m 0,-8.69516 q 0,0.7453 1.32497,0.7453 1.24217,0 1.82185,-0.57968 0,-0.0828 -0.24843,-0.24843 -0.16563,-0.24844 -0.24844,-0.24844 -0.24843,0 -0.82811,0.24844 -0.57968,0.24843 -0.7453,0.24843 l 0.49687,-0.99373 q -1.57341,0 -1.57341,0.82811 z m -0.0828,-2.48434 q 0.57967,0 1.4906,0.41406 0.99373,0.33124 1.24216,0.7453 0.57968,-0.82811 0.57968,-2.07028 h -1.15936 q 0.41406,-1.07654 1.07655,-1.57341 -0.16562,-2.48433 -0.16562,-4.88585 0,-4.22337 0.66249,-6.79051 -0.41406,0.41405 -0.99374,0.41405 -1.40779,0.66249 -1.82184,1.15936 -0.33125,0.41405 -0.33125,1.65622 0,0.33124 0.0828,0.33124 l 0.99374,0.57968 -0.99374,0.91092 v 6.62489 l 0.99374,0.57968 q -1.65622,0.33124 -1.65622,1.90465 z m 27.24485,-6.04521 q -0.24843,0.33125 -0.99373,0.7453 -0.7453,0.41406 -0.7453,1.07655 1.40778,0 2.81557,-1.40779 1.4906,-1.4906 1.4906,-2.9812 -0.91092,0 -2.31871,0.82811 -1.40779,0.82811 -1.40779,1.73903 z m 2.89839,-6.21083 q -1.98747,0 -3.47807,1.24217 -1.4906,1.24216 -1.4906,3.22963 2.15309,0 3.56088,-1.15935 1.40779,-1.15936 1.40779,-3.31245 z m -3.39526,-0.41405 -1.15935,1.07654 q 0.82811,0 2.2359,-0.66249 1.4906,-0.7453 1.4906,-1.90465 0,-1.15936 -1.15936,-1.15936 -0.0828,0 -0.24843,0.0828 -0.0828,0 -0.16562,0 0.49686,-0.49687 0.49686,-0.91092 0,-0.82811 -0.41405,-1.4906 -0.41406,-0.66249 -1.07655,-0.66249 -1.82184,0 -3.06401,2.15309 0.66249,0.24843 0.99373,0.41405 0,0.0828 -0.33124,0.82812 l -0.24843,0.7453 q 0,0.41405 0.57967,0.41405 0.24844,0 0.7453,-0.16562 0.49687,-0.24843 0.7453,-0.24843 l -0.57967,1.07654 1.15935,0.41406 z m -25.58863,-3.06402 q 0,0.99374 0.99373,0.99374 2.07028,-0.33125 2.89839,-0.7453 0.91092,-0.49687 1.07655,-0.99374 0.24843,-0.57967 0.66249,-0.74529 0.24843,-0.16563 2.64995,-1.07655 2.48433,-0.91092 4.55461,-1.90465 2.15309,-0.99374 2.48434,-1.65623 l -0.49687,-0.49686 -6.04521,1.57341 q -0.24844,0 -0.66249,0 l -0.41406,-0.0828 q -0.33124,0.24843 -1.40779,1.4906 -1.07654,1.24216 -1.90465,1.24216 -0.16562,0 -0.82811,-0.66249 -1.15936,0.41406 -1.73903,0.66249 -0.57968,0.24844 -1.24217,0.91093 -0.57968,0.57967 -0.57968,1.49059 z m 1.57341,-4.05774 q -1.24216,0.91092 -1.24216,1.65622 0.33124,0 0.99373,-0.24843 0.66249,-0.33124 1.15935,-0.57968 0.57968,-0.24843 0.57968,-0.33124 0,-0.66249 -0.33124,-1.82185 -0.33125,-1.15935 -0.66249,-1.24216 l 0.24843,-0.7453 q 0.24844,-0.7453 0.24844,-0.82811 0,-1.07655 -0.41406,-3.14683 -0.33124,-2.15309 -0.33124,-3.39525 h -0.24844 q 0.57968,-1.07655 0.57968,-3.14682 0,-1.24217 -0.33124,-1.57341 -0.24844,-0.33125 -0.24844,-0.41406 0,-0.41406 0.24844,-1.24217 0.33124,-0.82811 0.33124,-1.82184 0,-1.98747 -0.57968,-1.98747 -0.57968,0 -1.32498,0.33125 -0.7453,0.33124 -0.7453,0.57967 0,1.15936 0.7453,3.97494 0.7453,2.81558 0.7453,3.64369 0,0.82811 -0.49686,1.07654 v 8.1983 l 0.49686,0.49687 q -0.7453,0 -0.7453,2.56714 z m 15.32006,0.99373 1.15935,0.66249 q 0.49687,0 2.40152,-2.15309 -1.82184,0.41406 -3.56087,1.4906 z m 6.04521,-2.07027 -2.48434,2.64995 0.24844,0.0828 q 0.24843,0 0.33124,0 1.90466,0 2.9812,-1.65622 l -1.07654,-1.07654 z m -8.11549,1.65622 0.49687,0.41405 q 0.7453,0 5.71396,-3.06401 -0.7453,-0.49686 -3.64369,-0.49686 z m -0.99373,-1.07655 -2.07028,1.07655 0.33124,0.0828 q 0.33125,0 0.41406,0 1.32498,0 1.32498,-1.15936 z" inkscape:connector-curvature="0"></path>
      <path id="path5286" d="m 466.4918,422.30809 q 0,-4.14055 1.4906,-9.10922 1.4906,-4.96866 3.64369,-8.52954 0.0828,0.0828 0.16562,0.0828 0.49687,0 1.98747,-0.99373 1.57341,-1.07655 1.98746,-1.07655 5.71397,-1.32498 7.61862,-1.32498 v 0.7453 q 1.65623,-0.57967 4.05775,-0.57967 7.453,0 7.453,2.2359 2.15309,0 3.56087,1.82184 1.40779,1.73903 2.2359,3.80931 0.91093,2.07028 1.57341,2.40152 v 7.12176 l -1.4906,1.07654 0.41406,0.49687 q -2.2359,1.73903 -9.77171,1.73903 -7.94987,0 -9.35765,-0.0828 -1.32498,-0.0828 -5.38273,-0.66249 -0.0828,-0.49686 -0.49686,-0.49686 -0.0828,0 -0.41406,0.0828 -0.33124,0.0828 -0.49687,0.0828 0,2.40152 0.57968,5.29991 0.66249,2.89839 1.90466,4.22337 0.66249,0.66248 3.06401,1.57341 2.40152,0.91092 2.56714,0.99373 1.4906,1.07654 2.56715,1.07654 2.15309,0 6.54207,-1.07654 4.4718,-1.07654 6.54208,-1.07654 1.82185,0 1.82185,3.39525 0,1.65622 -0.33125,2.07028 -0.24843,0.41405 -0.91092,0.49686 -0.57968,0.0828 -0.99373,0.66249 -0.49687,0.16563 -9.6889,1.65623 -7.78425,0 -11.1795,-1.07655 -3.89212,-1.24217 -7.61862,-7.03894 -3.64369,-5.79678 -3.64369,-10.02015 z m 12.25604,14.49195 q 1.82185,0.49686 2.07028,0.57967 0.41405,0.41406 0.49687,0.41406 1.24216,0 2.15308,-0.7453 0.99374,-0.82811 0.99374,-1.98747 -3.14682,0 -3.14682,0.7453 0,-0.24843 -0.33125,-0.66249 -0.24843,-0.41405 -0.41405,-0.41405 -0.16563,0 -1.07655,0.82811 -0.82811,0.7453 -0.82811,0.99373 0.0828,0.16563 0.0828,0.24844 z m 5.63116,0.57967 q 0.41405,0.41406 0.49686,0.41406 1.65623,0 5.38272,-0.66249 3.7265,-0.7453 4.88586,-0.7453 l 0.49687,0.24843 0.49686,0.16563 q 2.64996,0 2.64996,-1.73904 -1.57341,0 -4.14056,0.66249 -2.48433,0.57968 -3.64369,0.66249 -0.82811,0 -2.31871,0.0828 -1.4906,0.0828 -2.64995,0.16562 l -1.15936,0.16563 -0.49686,0.57967 z m -7.70144,-2.07027 q 0,0.0828 0.24844,0.33124 0.24843,0.16562 0.33124,0.16562 0.7453,-0.16562 1.65622,-0.7453 0.91093,-0.57967 0.91093,-0.82811 0,-0.33124 -0.16563,-0.57967 -0.16562,-0.24844 -0.33124,-0.33125 -0.16562,-0.0828 -0.24843,-0.0828 -0.7453,0 -1.57342,0.7453 -0.82811,0.66249 -0.82811,1.32498 z m -3.56087,-2.64996 2.64995,2.15309 q 0.99373,-1.4906 0.99373,-1.90465 l -0.0828,-0.24844 -2.9812,-0.41405 -0.57967,0.41405 z m -1.4906,-2.48433 q 0.99373,0.7453 0.99373,2.07028 1.90466,-0.99374 1.90466,-3.14683 -2.40153,0 -2.89839,1.07655 z m 0.99373,-4.63742 q -1.57341,2.48433 -1.57341,3.31244 2.40152,0 3.14682,-0.66249 -0.24843,-0.57968 -0.82811,-1.32498 -0.57968,-0.82811 -0.7453,-1.32497 z m -0.33124,-1.15936 q -1.57342,0 -1.98747,0.49687 -0.41406,0.41405 -0.41406,2.07028 0.99374,0 1.65623,-0.7453 0.7453,-0.82812 0.7453,-1.82185 z m -1.73904,-2.40152 -0.99373,1.57341 q 0.0828,0 0.41405,0.0828 0.33125,0 0.41406,0 0.7453,0 1.4906,-0.33124 0.82811,-0.41406 0.82811,-1.07655 0,-0.0828 -0.24843,-0.49686 -0.24844,-0.49687 -0.24844,-0.7453 0.16563,-0.41406 0.41406,-0.99374 0.33124,-0.66249 0.41406,-1.07654 0.16562,-0.49687 0.16562,-1.15936 0,-0.99373 -0.82811,-1.32497 -0.82811,-0.41406 -0.82811,-0.7453 0,-0.33125 0.49686,-1.4906 0.57968,-1.24217 0.57968,-1.65623 0,-0.7453 1.73903,-2.89839 1.73904,-2.23589 1.73904,-3.31244 0.16562,0 0.99373,0.16562 0.82811,0.16563 1.07654,0.16563 0.24844,0 0.33125,-0.41406 0.0828,-0.49687 0.24843,-0.57968 0.41406,-0.16562 2.07028,-0.16562 1.65622,-0.0828 3.06401,-0.24843 1.4906,-0.16563 1.4906,-0.57968 -1.40779,-0.66249 -3.89212,-0.66249 -5.63116,0 -8.61236,3.80931 -2.89839,3.80931 -2.89839,9.60609 h 2.64996 v 0.49687 l -3.06401,3.06401 v 1.57341 l 0.99373,-0.57968 z m 20.45434,-3.56088 h -2.81557 q -3.39526,0 -3.39526,1.32498 l 0.0828,0.0828 q 0,0.0828 0,0.16562 l 1.07655,-0.0828 q 1.07654,-0.0828 1.98746,-0.16562 0.99374,-0.16562 1.90466,-0.49687 0.99373,-0.33124 1.15935,-0.82811 z m -13.58102,-0.99373 q -0.16562,0 -1.07654,0.82811 -0.82811,0.82811 -1.15936,1.24217 0.66249,-0.16563 1.4906,-0.33125 0.82811,-0.16562 1.24217,-0.24843 0.41406,-0.0828 0.99373,-0.33125 0.66249,-0.24843 1.40779,-0.66248 -0.24843,-0.0828 -2.56714,-0.49687 z m 2.89839,1.4906 q 1.65622,0.57968 2.89839,0.57968 0.7453,0 1.24217,-0.49687 0.57968,-0.49687 0.57968,-1.24217 -4.14056,0 -4.72024,1.15936 z m 17.97001,-3.22963 q 0,1.15935 -0.91092,1.65622 -0.91092,0.41405 -2.07028,0.33124 -1.07654,-0.0828 -1.98746,0.24844 -0.91093,0.24843 -0.91093,1.15935 5.79678,0 6.21084,-1.15935 0.41405,0.66248 1.15935,0.66248 0,-0.66248 -0.33124,-1.4906 -0.24844,-0.82811 -0.24844,-1.15935 0,-0.24843 0.57968,-0.66249 0.57968,-0.49687 0.57968,-1.82184 0,-3.22964 -1.90466,-3.22964 -0.57967,0 -0.91092,0.33125 -0.24843,0.24843 -0.33124,0.66249 0,0.33124 0,1.15935 0.91092,2.73277 1.07654,2.9812 z m -22.44181,0.99373 q -0.7453,0 -1.32497,0.57968 -0.49687,0.57967 -0.49687,1.32497 1.07654,0 1.40779,-0.41405 0.41405,-0.41406 0.41405,-1.4906 z m -0.66249,-2.73277 q 0.7453,1.40779 12.25605,1.40779 1.4906,0 3.89212,-0.33124 2.48433,-0.33125 3.89212,-0.33125 0,-0.41405 -0.57968,-1.65622 -0.57967,-1.32498 -0.91092,-1.32498 l -0.16562,0.0828 q -0.57968,-1.73903 -3.7265,-2.89838 -3.06401,-1.15936 -5.2171,-1.15936 -7.12176,0 -9.44047,6.21083 z m 17.47315,-7.453 q 0,0.66249 1.4906,1.98747 1.4906,1.32498 1.98746,1.32498 0.49687,0 1.32498,-0.33125 0.82811,-0.33124 0.82811,-0.7453 0,-0.41405 -0.33124,-1.4906 l -0.33125,-1.07654 q 0,0.49687 -0.99373,0.49687 -0.66249,-0.0828 -1.57341,-0.66249 -0.82811,-0.57968 -0.82811,-1.32498 -2.40152,0 -2.40152,-1.15936 -0.0828,0 -0.33125,0.33125 -0.24843,0.24843 -0.82811,0.57968 -0.49687,0.24843 -1.32498,0.24843 -0.33124,0 -0.82811,-0.33125 -0.49687,-0.33124 -1.07654,-0.33124 -0.0828,0 -0.57968,0.0828 -0.41406,0 -0.49687,0 0.16563,0.0828 0.7453,1.07655 0.66249,0.99373 1.07655,1.07654 0.0828,0 0.57967,-0.24843 0.49687,-0.33125 0.82812,-0.33125 0.0828,0 1.15935,0.41406 1.07655,0.41405 1.90466,0.41405 z" inkscape:connector-curvature="0"></path>
    </g>
    <g id="text3481" style="font-style:normal;font-variant:normal;font-weight:bold;font-stretch:normal;font-size:149.05999756px;line-height:125%;font-family:'Charlemagne Std';-inkscape-font-specification:'Charlemagne Std Bold';text-align:center;letter-spacing:-5.29991102px;word-spacing:0px;text-anchor:middle;fill:#000000;fill-opacity:1;stroke:none;stroke-width:1px;stroke-linecap:butt;stroke-linejoin:miter;stroke-opacity:1">
      <path id="path5269" d="m 202.5583,528.52374 c 0,21.31558 -0.29812,41.28962 -0.7453,47.84826 -3.57744,0.89436 -12.22292,1.78872 -15.80036,2.08684 l -0.59624,3.13026 c 4.32274,-0.29812 18.48344,-0.59624 25.48926,-0.59624 8.04924,0 23.8496,0.29812 26.68174,0.59624 l -0.29812,-3.13026 c -2.2359,-0.29812 -13.11728,-1.19248 -16.99284,-2.83214 -0.59624,-5.51522 -0.7453,-26.38362 -0.7453,-39.35184 v -3.57744 c 1.93778,-1.78872 6.55864,-5.66428 9.39078,-7.75112 4.17368,4.4718 54.4069,55.8975 66.03358,60.3693 l 5.06804,-1.63966 c -7.75112,-7.15488 -50.6804,-61.1146 -56.49374,-70.35632 6.26052,-5.66428 33.98568,-28.91764 40.39526,-32.34602 3.87556,-1.04342 7.60206,-1.4906 9.83796,-1.78872 l 0.89436,-3.13026 c -5.06804,0.29812 -11.9248,0.59624 -16.24754,0.59624 -5.81334,0 -16.3966,-0.29812 -22.65712,-0.59624 l 0.59624,3.13026 c 3.27932,0.44718 7.60206,1.19248 11.03044,2.08684 -4.32274,7.30394 -38.15936,36.22158 -47.84826,44.718 v -4.62086 c 0,-12.22292 0.14906,-35.32722 0.7453,-40.09714 3.42838,-0.59624 13.4154,-1.78872 15.20412,-2.08684 l 0.59624,-3.13026 c -2.83214,0.29812 -18.93062,0.59624 -24.44584,0.59624 -6.11146,0 -23.25336,-0.29812 -26.23456,-0.59624 l 0.44718,3.13026 c 3.57744,0.29812 12.37198,1.4906 15.94942,2.08684 0.44718,4.02462 0.7453,24.74396 0.7453,38.7556 z" inkscape:connector-curvature="0"></path>
      <path id="path5271" d="m 333.61568,519.87826 c 0,-18.33438 0.14906,-35.62534 0.7453,-38.60654 5.36616,-0.59624 12.6701,-1.78872 15.6513,-2.08684 l 0.7453,-3.13026 c -2.53402,0.29812 -15.35318,0.59624 -22.95524,0.59624 -11.77574,0 -25.48926,-0.29812 -28.3214,-0.59624 l 0.7453,3.13026 c 2.83214,0.29812 12.6701,1.4906 15.6513,2.08684 0.59624,5.06804 0.7453,32.94226 0.7453,37.86124 v 8.79454 c 0,14.60788 -0.14906,42.18398 -0.7453,48.4445 -3.13026,0.59624 -13.26634,1.93778 -15.80036,2.08684 l -0.59624,3.13026 c 4.4718,-0.29812 18.18532,-0.59624 23.25336,-0.59624 9.24172,0 24.74396,0.29812 28.02328,0.59624 l -0.7453,-3.13026 c -2.9812,-0.29812 -11.9248,-1.19248 -15.6513,-2.08684 -0.59624,-2.9812 -0.7453,-27.87422 -0.7453,-47.25202 z" inkscape:connector-curvature="0"></path>
      <path id="path5273" d="m 359.08968,479.78112 c 5.66428,0.29812 12.96822,1.04342 16.3966,1.78872 0,4.91898 -1.63966,88.54164 -4.17368,94.80216 -3.42838,1.04342 -8.1983,1.4906 -12.37198,2.08684 l -0.44718,3.13026 c 4.32274,-0.29812 15.94942,-0.59624 20.27216,-0.59624 3.87556,0 19.3778,0.29812 22.06088,0.59624 l -0.44718,-3.13026 c -2.83214,-0.29812 -14.01164,-1.34154 -16.24754,-2.08684 -1.93778,-5.36616 -3.7265,-83.62266 -3.27932,-86.60386 4.91898,5.66428 33.24038,40.2462 35.32722,42.4821 3.42838,3.87556 44.71799,52.02194 49.18979,56.19562 0.89436,-5.9624 2.08684,-68.5676 2.53402,-75.57342 0.29812,-4.76992 1.04342,-25.78738 2.83214,-31.60072 4.02462,-0.59624 9.39078,-1.78872 11.32856,-2.08684 l 0.59624,-3.13026 c -3.13026,0.29812 -15.50224,0.59624 -18.78156,0.59624 -3.27932,0 -19.3778,-0.29812 -22.20994,-0.59624 l 0.7453,3.13026 c 4.17368,0.29812 12.07386,1.4906 15.05506,2.08684 2.9812,7.75112 3.13026,60.07118 3.13026,76.61684 -4.76992,-4.02462 -28.47046,-32.7932 -32.34602,-36.96688 -2.53402,-2.68308 -32.49507,-40.2462 -35.77439,-45.31424 -11.62668,0.59624 -25.63832,0.7453 -33.98568,1.04342 z" inkscape:connector-curvature="0"></path>
      <path id="path5275" d="m 597.9803,556.09984 c 0,-4.17368 0.14906,-14.01164 0.59624,-16.54566 3.27932,-0.7453 11.62668,-1.4906 12.96822,-1.63966 l 0.7453,-3.13026 c -1.78872,0.29812 -16.24754,0.44718 -23.40242,0.44718 -5.2171,0 -16.69472,-0.14906 -24.44584,-0.44718 l 0.89436,3.13026 c 2.83214,0.59624 12.07386,1.34154 15.05506,1.63966 0.44718,2.68308 0.59624,7.30394 0.59624,11.9248 v 7.90018 c 0,7.453 -0.14906,12.52104 -0.44718,14.75694 -6.26052,3.27932 -15.05506,3.87556 -18.93062,3.87556 -32.19696,0 -52.9163,-31.15354 -52.9163,-55.45032 0,-23.8496 17.29096,-43.07834 43.2274,-43.07834 24.29678,0 34.88004,9.83796 38.7556,14.45882 0.59624,3.42838 1.34154,8.64548 1.63966,13.71352 l 3.42838,1.78872 c -0.44718,-13.86258 1.19248,-40.2462 2.08684,-46.05954 l -3.42838,0.7453 c -0.44718,3.13026 -2.08684,11.47762 -2.68308,13.86258 -4.91898,-1.78872 -20.57028,-3.7265 -33.38944,-3.7265 -15.20412,0 -30.25918,2.83214 -43.82364,12.07386 -13.11728,8.9436 -23.55148,23.99866 -23.55148,45.01612 0,18.6325 10.88138,35.47628 29.66294,44.86706 12.52104,6.26052 29.812,7.15488 39.5009,7.15488 10.13608,0 29.51388,-2.38496 38.15936,-4.91898 -0.29812,-4.17368 -0.29812,-12.07386 -0.29812,-17.58908 z" inkscape:connector-curvature="0"></path>
      <path id="path5277" d="m 623.43102,506.76098 c 4.76992,-10.28514 10.73232,-23.99866 15.80036,-32.94226 l -13.86258,-4.91898 c -0.29812,12.22292 -1.78872,24.89302 -5.9624,38.0103 z" inkscape:connector-curvature="0"></path>
      <path id="path5279" style="font-size:119.24799347px" d="m 651.41153,592.32142 c 0.83474,-4.41218 2.02722,-10.13608 2.62346,-12.40179 3.33894,1.78872 10.73232,2.9812 16.45622,2.9812 16.21773,0 29.33501,-9.42059 29.33501,-25.99607 0,-15.02524 -10.01683,-21.70313 -19.91442,-27.90403 -9.06285,-5.7239 -17.17171,-9.89758 -17.17171,-17.6487 0,-5.36616 4.29293,-11.9248 14.54826,-11.9248 8.34736,0 14.54825,6.43939 15.85998,10.73232 0.2385,2.14646 0.47699,5.00842 0.47699,9.06285 l 2.7427,1.19248 c 0,-9.77834 1.19248,-20.8684 2.86196,-32.67395 l -2.74271,0.35774 c -0.71548,3.2197 -1.31172,6.79714 -2.14646,9.65909 -2.86195,-0.71549 -9.06285,-2.14646 -16.09848,-2.14646 -17.6487,0 -24.56509,11.6863 -24.56509,20.98764 0,13.47503 9.30135,20.15291 20.98765,27.78478 7.75112,5.00842 15.26374,9.77834 15.26374,19.43743 0,8.82435 -7.51262,15.02525 -16.93321,15.02525 -8.22811,0 -15.26374,-5.36616 -18.48344,-12.99804 -0.35774,-2.14646 -0.95398,-8.9436 -0.83474,-10.49382 l -2.7427,-0.71549 c 0.35774,2.86195 -0.35774,15.74074 -0.35774,18.84119 0,4.65067 -1.66948,17.88719 -1.90797,19.55667 z" inkscape:connector-curvature="0"></path>
    </g>
  </g>
</svg>
